<?xml version="1.0" encoding="utf-8" standalone="no"?>
<!DOCTYPE svg PUBLIC "-//W3C//DTD SVG 1.1//EN"
  "http://www.w3.org/Graphics/SVG/1.1/DTD/svg11.dtd">
<svg xmlns:xlink="http://www.w3.org/1999/xlink" width="329.465167pt" height="242.666213pt" viewBox="0 0 329.465167 242.666213" xmlns="http://www.w3.org/2000/svg" version="1.1">
 <metadata>
  <rdf:RDF xmlns:dc="http://purl.org/dc/elements/1.1/" xmlns:cc="http://creativecommons.org/ns#" xmlns:rdf="http://www.w3.org/1999/02/22-rdf-syntax-ns#">
   <cc:Work>
    <dc:type rdf:resource="http://purl.org/dc/dcmitype/StillImage"/>
    <dc:date>2023-11-02T16:31:22.182371</dc:date>
    <dc:format>image/svg+xml</dc:format>
    <dc:creator>
     <cc:Agent>
      <dc:title>Matplotlib v3.5.2, https://matplotlib.org/</dc:title>
     </cc:Agent>
    </dc:creator>
   </cc:Work>
  </rdf:RDF>
 </metadata>
 <defs>
  <style type="text/css">*{stroke-linejoin: round; stroke-linecap: butt}</style>
 </defs>
 <g id="figure_1">
  <g id="patch_1">
   <path d="M 0 242.666213 
L 329.465167 242.666213 
L 329.465167 0 
L 0 0 
z
" style="fill: #ffffff"/>
  </g>
  <g id="axes_1">
   <g id="patch_2">
    <path d="M 53.958816 194.092096 
L 322.265167 194.092096 
L 322.265167 29.339474 
L 53.958816 29.339474 
z
" style="fill: #ffffff"/>
   </g>
   <g id="matplotlib.axis_1">
    <g id="xtick_1">
     <g id="line2d_1">
      <defs>
       <path id="m8c55aa7048" d="M 0 0 
L 0 -3.5 
" style="stroke: #000000; stroke-width: 0.8"/>
      </defs>
      <g>
       <use xlink:href="#m8c55aa7048" x="127.133275" y="194.092096" style="stroke: #000000; stroke-width: 0.8"/>
      </g>
     </g>
     <g id="text_1">
      <!-- $\mathdefault{10^{-1}}$ -->
      <g transform="translate(110.954497 210.045396)scale(0.18 -0.18)">
       <defs>
        <path id="CMR17-31" d="M 1702 4058 
C 1702 4192 1696 4192 1606 4192 
C 1357 3916 979 3827 621 3827 
C 602 3827 570 3827 563 3808 
C 557 3795 557 3782 557 3648 
C 755 3648 1088 3686 1344 3839 
L 1344 461 
C 1344 236 1331 160 781 160 
L 589 160 
L 589 0 
C 896 0 1216 0 1523 0 
C 1830 0 2150 0 2458 0 
L 2458 160 
L 2266 160 
C 1715 160 1702 230 1702 458 
L 1702 4058 
z
" transform="scale(0.015625)"/>
        <path id="CMR17-30" d="M 2688 2025 
C 2688 2416 2682 3080 2413 3591 
C 2176 4039 1798 4198 1466 4198 
C 1158 4198 768 4058 525 3597 
C 269 3118 243 2524 243 2025 
C 243 1661 250 1106 448 619 
C 723 -39 1216 -128 1466 -128 
C 1760 -128 2208 -7 2470 600 
C 2662 1042 2688 1559 2688 2025 
z
M 1466 -26 
C 1056 -26 813 325 723 812 
C 653 1188 653 1738 653 2096 
C 653 2588 653 2997 736 3387 
C 858 3929 1216 4096 1466 4096 
C 1728 4096 2067 3923 2189 3400 
C 2272 3036 2278 2607 2278 2096 
C 2278 1680 2278 1169 2202 792 
C 2067 95 1690 -26 1466 -26 
z
" transform="scale(0.015625)"/>
        <path id="CMSY10-0" d="M 4218 1472 
C 4326 1472 4442 1472 4442 1600 
C 4442 1728 4326 1728 4218 1728 
L 755 1728 
C 646 1728 531 1728 531 1600 
C 531 1472 646 1472 755 1472 
L 4218 1472 
z
" transform="scale(0.015625)"/>
       </defs>
       <use xlink:href="#CMR17-31" transform="scale(0.996264)"/>
       <use xlink:href="#CMR17-30" transform="translate(45.690477 0)scale(0.996264)"/>
       <use xlink:href="#CMSY10-0" transform="translate(91.380954 36.153639)scale(0.697382)"/>
       <use xlink:href="#CMR17-31" transform="translate(145.621947 36.153639)scale(0.697382)"/>
      </g>
     </g>
    </g>
    <g id="xtick_2">
     <g id="line2d_2">
      <g>
       <use xlink:href="#m8c55aa7048" x="218.60135" y="194.092096" style="stroke: #000000; stroke-width: 0.8"/>
      </g>
     </g>
     <g id="text_2">
      <!-- $\mathdefault{10^{2}}$ -->
      <g transform="translate(207.304259 210.045396)scale(0.18 -0.18)">
       <defs>
        <path id="CMR17-32" d="M 2669 989 
L 2554 989 
C 2490 536 2438 459 2413 420 
C 2381 369 1920 369 1830 369 
L 602 369 
C 832 619 1280 1072 1824 1597 
C 2214 1967 2669 2402 2669 3035 
C 2669 3790 2067 4224 1395 4224 
C 691 4224 262 3604 262 3030 
C 262 2780 448 2748 525 2748 
C 589 2748 781 2787 781 3010 
C 781 3207 614 3264 525 3264 
C 486 3264 448 3258 422 3245 
C 544 3790 915 4058 1306 4058 
C 1862 4058 2227 3617 2227 3035 
C 2227 2479 1901 2000 1536 1584 
L 262 146 
L 262 0 
L 2515 0 
L 2669 989 
z
" transform="scale(0.015625)"/>
       </defs>
       <use xlink:href="#CMR17-31" transform="scale(0.996264)"/>
       <use xlink:href="#CMR17-30" transform="translate(45.690477 0)scale(0.996264)"/>
       <use xlink:href="#CMR17-32" transform="translate(91.380954 36.153639)scale(0.697382)"/>
      </g>
     </g>
    </g>
    <g id="xtick_3">
     <g id="line2d_3">
      <g>
       <use xlink:href="#m8c55aa7048" x="310.069424" y="194.092096" style="stroke: #000000; stroke-width: 0.8"/>
      </g>
     </g>
     <g id="text_3">
      <!-- $\mathdefault{10^{5}}$ -->
      <g transform="translate(298.772333 210.045396)scale(0.18 -0.18)">
       <defs>
        <path id="CMR17-35" d="M 730 3692 
C 794 3666 1056 3584 1325 3584 
C 1920 3584 2246 3911 2432 4100 
C 2432 4157 2432 4192 2394 4192 
C 2387 4192 2374 4192 2323 4163 
C 2099 4058 1837 3973 1517 3973 
C 1325 3973 1037 3999 723 4139 
C 653 4171 640 4171 634 4171 
C 602 4171 595 4164 595 4037 
L 595 2203 
C 595 2089 595 2057 659 2057 
C 691 2057 704 2070 736 2114 
C 941 2401 1222 2522 1542 2522 
C 1766 2522 2246 2382 2246 1289 
C 2246 1085 2246 715 2054 421 
C 1894 159 1645 25 1370 25 
C 947 25 518 320 403 814 
C 429 807 480 795 506 795 
C 589 795 749 840 749 1038 
C 749 1210 627 1280 506 1280 
C 358 1280 262 1190 262 1011 
C 262 454 704 -128 1382 -128 
C 2042 -128 2669 440 2669 1264 
C 2669 2030 2170 2624 1549 2624 
C 1222 2624 947 2503 730 2274 
L 730 3692 
z
" transform="scale(0.015625)"/>
       </defs>
       <use xlink:href="#CMR17-31" transform="scale(0.996264)"/>
       <use xlink:href="#CMR17-30" transform="translate(45.690477 0)scale(0.996264)"/>
       <use xlink:href="#CMR17-35" transform="translate(91.380954 36.153639)scale(0.697382)"/>
      </g>
     </g>
    </g>
    <g id="text_4">
     <!-- $t/\tau_D$ -->
     <g transform="translate(171.636528 230.983025)scale(0.18 -0.18)">
      <defs>
       <path id="CMMI12-74" d="M 1286 2566 
L 1875 2566 
C 1997 2566 2061 2566 2061 2681 
C 2061 2752 2022 2752 1894 2752 
L 1331 2752 
L 1568 3692 
C 1594 3781 1594 3794 1594 3840 
C 1594 3943 1510 4000 1427 4000 
C 1376 4000 1229 3981 1178 3775 
L 928 2752 
L 326 2752 
C 198 2752 141 2752 141 2630 
C 141 2566 186 2566 307 2566 
L 877 2566 
L 454 881 
C 403 658 384 594 384 511 
C 384 211 595 -64 954 -64 
C 1600 -64 1946 868 1946 912 
C 1946 951 1920 970 1882 970 
C 1869 970 1843 970 1830 944 
C 1824 938 1818 931 1773 829 
C 1638 511 1344 64 973 64 
C 781 64 768 224 768 364 
C 768 370 768 492 787 568 
L 1286 2566 
z
" transform="scale(0.015625)"/>
       <path id="CMMI12-3d" d="M 2746 4562 
C 2746 4569 2784 4666 2784 4678 
C 2784 4755 2720 4800 2669 4800 
C 2637 4800 2579 4800 2528 4659 
L 384 -1363 
C 384 -1370 346 -1465 346 -1478 
C 346 -1555 410 -1600 461 -1600 
C 499 -1600 557 -1593 602 -1459 
L 2746 4562 
z
" transform="scale(0.015625)"/>
       <path id="CMMI12-1c" d="M 1837 2408 
L 2899 2408 
C 2982 2408 3194 2408 3194 2612 
C 3194 2752 3072 2752 2957 2752 
L 1197 2752 
C 1050 2752 832 2752 538 2440 
C 371 2255 166 1917 166 1879 
C 166 1841 198 1828 237 1828 
C 282 1828 288 1847 320 1885 
C 653 2408 986 2408 1146 2408 
L 1677 2408 
L 1011 223 
C 979 127 979 114 979 95 
C 979 25 1024 -64 1152 -64 
C 1350 -64 1382 108 1402 203 
L 1837 2408 
z
" transform="scale(0.015625)"/>
       <path id="CMMI12-44" d="M 1005 472 
C 947 249 934 185 486 185 
C 365 185 301 185 301 70 
C 301 0 339 0 467 0 
L 2496 0 
C 3789 0 5050 1332 5050 2753 
C 5050 3671 4499 4352 3584 4352 
L 1530 4352 
C 1408 4352 1350 4352 1350 4231 
C 1350 4167 1408 4167 1504 4167 
C 1894 4167 1894 4116 1894 4046 
C 1894 4034 1894 3995 1869 3899 
L 1005 472 
z
M 2355 3931 
C 2413 4167 2438 4167 2688 4167 
L 3392 4167 
C 3994 4167 4544 3842 4544 2963 
C 4544 2644 4416 1536 3795 835 
C 3616 625 3130 185 2394 185 
L 1664 185 
C 1574 185 1562 185 1523 192 
C 1453 198 1446 211 1446 262 
C 1446 307 1459 345 1472 402 
L 2355 3931 
z
" transform="scale(0.015625)"/>
      </defs>
      <use xlink:href="#CMMI12-74" transform="scale(0.996264)"/>
      <use xlink:href="#CMMI12-3d" transform="translate(35.22633 0)scale(0.996264)"/>
      <use xlink:href="#CMMI12-1c" transform="translate(84.001249 0)scale(0.996264)"/>
      <use xlink:href="#CMMI12-44" transform="translate(126.36509 -14.943915)scale(0.697382)"/>
     </g>
    </g>
   </g>
   <g id="matplotlib.axis_2">
    <g id="ytick_1">
     <g id="line2d_4">
      <defs>
       <path id="m2f44815219" d="M 0 0 
L 3.5 0 
" style="stroke: #000000; stroke-width: 0.8"/>
      </defs>
      <g>
       <use xlink:href="#m2f44815219" x="53.958816" y="183.143357" style="stroke: #000000; stroke-width: 0.8"/>
      </g>
     </g>
     <g id="text_5">
      <!-- $\mathdefault{0.0}$ -->
      <g transform="translate(29.132752 189.370007)scale(0.18 -0.18)">
       <defs>
        <path id="CMMI12-3a" d="M 1178 307 
C 1178 492 1024 619 870 619 
C 685 619 557 466 557 313 
C 557 128 710 0 864 0 
C 1050 0 1178 153 1178 307 
z
" transform="scale(0.015625)"/>
       </defs>
       <use xlink:href="#CMR17-30" transform="scale(0.996264)"/>
       <use xlink:href="#CMMI12-3a" transform="translate(45.690477 0)scale(0.996264)"/>
       <use xlink:href="#CMR17-30" transform="translate(72.787654 0)scale(0.996264)"/>
      </g>
     </g>
    </g>
    <g id="ytick_2">
     <g id="line2d_5">
      <g>
       <use xlink:href="#m2f44815219" x="53.958816" y="109.985793" style="stroke: #000000; stroke-width: 0.8"/>
      </g>
     </g>
     <g id="text_6">
      <!-- $\mathdefault{0.5}$ -->
      <g transform="translate(29.132752 116.212443)scale(0.18 -0.18)">
       <use xlink:href="#CMR17-30" transform="scale(0.996264)"/>
       <use xlink:href="#CMMI12-3a" transform="translate(45.690477 0)scale(0.996264)"/>
       <use xlink:href="#CMR17-35" transform="translate(72.787654 0)scale(0.996264)"/>
      </g>
     </g>
    </g>
    <g id="ytick_3">
     <g id="line2d_6">
      <g>
       <use xlink:href="#m2f44815219" x="53.958816" y="36.828229" style="stroke: #000000; stroke-width: 0.8"/>
      </g>
     </g>
     <g id="text_7">
      <!-- $\mathdefault{1.0}$ -->
      <g transform="translate(29.132752 43.05488)scale(0.18 -0.18)">
       <use xlink:href="#CMR17-31" transform="scale(0.996264)"/>
       <use xlink:href="#CMMI12-3a" transform="translate(45.690477 0)scale(0.996264)"/>
       <use xlink:href="#CMR17-30" transform="translate(72.787654 0)scale(0.996264)"/>
      </g>
     </g>
    </g>
    <g id="text_8">
     <!-- $x/L$ -->
     <g transform="translate(20.649564 127.067966)rotate(-90)scale(0.18 -0.18)">
      <defs>
       <path id="CMMI12-78" d="M 3034 2606 
C 2829 2567 2752 2414 2752 2293 
C 2752 2139 2874 2088 2963 2088 
C 3155 2088 3290 2254 3290 2427 
C 3290 2695 2982 2816 2714 2816 
C 2323 2816 2106 2433 2048 2312 
C 1901 2816 1504 2816 1389 2816 
C 736 2816 390 1980 390 1839 
C 390 1814 416 1782 461 1782 
C 512 1782 525 1820 538 1846 
C 755 2555 1184 2689 1370 2689 
C 1658 2689 1715 2420 1715 2267 
C 1715 2127 1677 1980 1600 1673 
L 1382 798 
C 1286 415 1101 64 762 64 
C 730 64 570 64 435 147 
C 666 192 717 383 717 460 
C 717 588 621 664 499 664 
C 346 664 179 530 179 326 
C 179 57 480 -64 755 -64 
C 1062 -64 1280 179 1414 441 
C 1517 64 1837 -64 2074 -64 
C 2726 -64 3072 773 3072 913 
C 3072 945 3046 971 3008 971 
C 2950 971 2944 939 2925 888 
C 2752 326 2381 64 2093 64 
C 1869 64 1747 230 1747 492 
C 1747 632 1773 734 1875 1156 
L 2099 2024 
C 2195 2408 2413 2689 2707 2689 
C 2720 2689 2899 2689 3034 2606 
z
" transform="scale(0.015625)"/>
       <path id="CMMI12-4c" d="M 2349 3861 
C 2406 4103 2426 4167 2989 4167 
C 3162 4167 3206 4167 3206 4288 
C 3206 4352 3136 4352 3110 4352 
C 2982 4352 2835 4352 2707 4352 
L 1850 4352 
C 1728 4352 1587 4352 1466 4352 
C 1414 4352 1344 4352 1344 4231 
C 1344 4167 1402 4167 1498 4167 
C 1888 4167 1888 4116 1888 4046 
C 1888 4034 1888 3995 1862 3899 
L 998 472 
C 941 249 928 185 480 185 
C 358 185 294 185 294 70 
C 294 0 333 0 461 0 
L 3328 0 
C 3469 0 3475 6 3520 121 
L 4013 1478 
C 4026 1510 4038 1548 4038 1567 
C 4038 1605 4006 1631 3974 1631 
C 3968 1631 3936 1631 3923 1605 
C 3910 1599 3910 1586 3859 1465 
C 3654 905 3366 185 2285 185 
L 1670 185 
C 1581 185 1568 185 1530 192 
C 1459 198 1453 211 1453 262 
C 1453 307 1466 345 1478 401 
L 2349 3861 
z
" transform="scale(0.015625)"/>
      </defs>
      <use xlink:href="#CMMI12-78" transform="scale(0.996264)"/>
      <use xlink:href="#CMMI12-3d" transform="translate(55.43406 0)scale(0.996264)"/>
      <use xlink:href="#CMMI12-4c" transform="translate(104.208978 0)scale(0.996264)"/>
     </g>
    </g>
   </g>
   <g id="line2d_7">
    <path d="M -1 37.139227 
L 66.154559 37.139916 
L 84.510982 37.766139 
L 97.905954 38.404084 
L 106.468177 39.048924 
L 113.232203 39.7758 
L 118.974133 40.61274 
L 123.499358 41.487231 
L 127.395489 42.451664 
L 131.107068 43.623824 
L 134.159515 44.834137 
L 136.957535 46.191461 
L 139.58025 47.716603 
L 141.812152 49.255107 
L 144.057749 51.059231 
L 146.261258 53.132317 
L 148.311342 55.361621 
L 150.341037 57.889742 
L 152.319766 60.697336 
L 154.332667 63.94281 
L 156.446387 67.795136 
L 158.468933 71.939506 
L 160.449626 76.484013 
L 162.524364 81.812476 
L 164.788339 88.254678 
L 167.21793 95.903167 
L 170.017783 105.56964 
L 172.586839 115.123309 
L 182.725857 153.524475 
L 185.024187 160.821053 
L 187.032351 166.608231 
L 188.457029 170.002139 
L 191.18168 175.46698 
L 192.05141 176.683356 
L 193.884293 178.317316 
L 194.95865 179.240283 
L 196.847235 181.58839 
L 197.474296 182.128813 
L 198.037381 182.25019 
L 199.394586 182.328522 
L 200.768845 182.157046 
L 201.107116 182.117465 
L 201.352466 181.909534 
L 201.714304 181.729209 
L 202.001274 181.600235 
L 202.375377 181.519288 
L 202.761118 181.718124 
L 203.077908 181.894241 
L 203.361788 181.950935 
L 203.78442 181.857645 
L 204.437397 181.339039 
L 204.665805 181.357182 
L 205.672322 181.703826 
L 206.483964 182.779758 
L 206.744576 182.742248 
L 207.143435 182.480116 
L 207.618025 181.972976 
L 207.797091 182.007413 
L 207.994434 182.078551 
L 208.260199 182.120046 
L 208.595933 182.02922 
L 208.833682 182.191787 
L 209.382292 182.785838 
L 210.249548 182.363415 
L 210.908623 182.796092 
L 211.223017 183.01948 
L 211.337641 182.934149 
L 211.50887 182.803648 
L 211.532152 182.823828 
L 211.721842 183.053507 
L 211.984366 183.303964 
L 212.40305 183.61661 
L 212.645475 183.895364 
L 212.894142 183.916503 
L 213.00594 183.852599 
L 213.591467 183.1858 
L 213.803177 183.147547 
L 214.17959 183.469546 
L 214.411822 183.767455 
L 214.607149 183.866276 
L 214.607686 183.865831 
L 214.850182 183.873498 
L 215.022201 183.732246 
L 215.816673 182.899514 
L 215.834473 182.920279 
L 216.114615 183.207747 
L 216.359657 183.571112 
L 216.947876 184.611512 
L 216.970511 184.590595 
L 217.088748 184.627167 
L 217.473494 184.9321 
L 217.516392 184.946843 
L 217.574042 184.88525 
L 218.053637 184.080798 
L 218.071703 184.103728 
L 218.1968 184.219557 
L 218.234834 184.189644 
L 218.347883 184.207103 
L 218.348153 184.207343 
L 218.540964 184.6404 
L 218.806972 185.121081 
L 218.905816 185.055373 
L 219.261514 184.485534 
L 219.709497 183.685764 
L 219.726779 183.702608 
L 219.864951 183.736793 
L 219.879987 183.703457 
L 220.57462 181.587927 
L 220.810928 180.536524 
L 220.981837 179.897437 
L 221.00306 179.91736 
L 221.257828 180.457333 
L 221.529034 181.552654 
L 221.566345 181.514062 
L 221.647073 181.334954 
L 221.741107 181.202077 
L 221.79854 181.252409 
L 221.926887 181.516994 
L 222.129486 182.0273 
L 222.142363 182.033217 
L 222.222787 181.959878 
L 222.395415 181.880312 
L 222.396211 181.880815 
L 222.465127 182.170197 
L 222.65835 182.716333 
L 222.84447 182.972279 
L 222.990422 183.105818 
L 223.326422 183.590952 
L 223.334204 183.58284 
L 223.389568 183.463898 
L 223.431467 183.421028 
L 223.489447 183.514324 
L 223.542981 183.59674 
L 223.608734 183.536973 
L 224.045345 182.311608 
L 224.277486 181.742026 
L 224.456109 181.494912 
L 224.523842 181.408346 
L 224.579517 181.507536 
L 224.932727 182.298076 
L 225.055614 182.216515 
L 225.105861 182.224656 
L 225.075768 182.23385 
L 225.155272 182.267608 
L 225.264197 182.246345 
L 225.267399 182.241921 
L 225.332151 182.297497 
L 225.344491 182.324191 
L 225.435923 182.433248 
L 225.482939 182.393538 
L 225.596084 182.657181 
L 225.829799 183.670893 
L 225.868863 183.581459 
L 226.003401 183.462078 
L 226.003704 183.462312 
L 226.135836 183.530337 
L 226.22347 183.678203 
L 226.273489 183.5248 
L 226.407743 183.355215 
L 226.418387 183.370309 
L 226.515545 183.711428 
L 226.574195 183.519568 
L 226.687128 182.850182 
L 227.075814 180.393001 
L 227.123137 180.530092 
L 227.358208 181.510298 
L 227.627274 183.426465 
L 227.875412 184.421688 
L 227.978533 184.271686 
L 228.082216 184.403112 
L 228.13891 184.418762 
L 228.173081 184.330704 
L 228.28431 184.250582 
L 228.304879 184.304209 
L 228.454771 184.548064 
L 228.455148 184.547982 
L 228.502501 184.508752 
L 228.522233 184.458378 
L 228.621698 184.224058 
L 228.678361 184.237472 
L 228.855458 184.193583 
L 228.877231 184.280746 
L 228.914048 184.438123 
L 228.982844 184.230109 
L 229.097334 183.824524 
L 229.179549 183.912278 
L 229.265815 184.008489 
L 229.305522 183.969341 
L 229.534111 183.443712 
L 229.536372 183.447136 
L 229.54356 183.439428 
L 229.678528 184.033368 
L 229.726853 184.23022 
L 229.798158 184.085035 
L 230.116334 183.423942 
L 230.176853 183.473853 
L 230.352024 183.668686 
L 230.464558 183.741112 
L 230.380506 183.654441 
L 230.482816 183.707144 
L 230.506708 183.724438 
L 230.554739 183.620203 
L 230.994577 182.343967 
L 231.135759 182.091275 
L 231.497597 180.079348 
L 231.553727 180.212624 
L 231.694323 180.482247 
L 231.738829 180.458193 
L 231.780838 180.386136 
L 231.788666 180.358014 
L 231.806116 180.322249 
L 231.88812 180.429767 
L 232.087206 180.961886 
L 232.22171 181.120796 
L 232.135274 180.929029 
L 232.27302 181.070744 
L 232.291538 181.067478 
L 232.317459 181.209638 
L 232.849936 184.269205 
L 232.937362 183.987665 
L 233.125455 183.559635 
L 233.365257 182.870496 
L 233.375587 182.889763 
L 233.38244 182.894252 
L 233.412631 182.745988 
L 233.429235 182.685513 
L 233.487873 182.987303 
L 233.6684 183.720353 
L 233.702731 183.685074 
L 233.839002 183.304918 
L 233.873311 183.477066 
L 234.019052 185.080902 
L 234.112621 184.998796 
L 234.207204 184.495455 
L 234.26226 184.876611 
L 234.300023 185.055502 
L 234.362027 184.787312 
L 234.46936 184.422285 
L 234.544964 184.54124 
L 234.603026 184.869448 
L 234.656267 185.099285 
L 234.698816 184.736406 
L 234.894261 183.2089 
L 234.904624 183.243395 
L 234.916641 183.273273 
L 234.954127 183.103026 
L 235.076183 182.699378 
L 235.097001 182.70667 
L 235.348146 182.513347 
L 235.48996 182.11369 
L 235.381188 182.529687 
L 235.537068 182.326157 
L 235.693538 183.696679 
L 235.806574 184.267677 
L 235.845768 184.134419 
L 235.90522 184.114304 
L 235.928139 184.045869 
L 235.954483 183.967678 
L 236.015938 184.185009 
L 236.060117 184.441599 
L 236.110608 183.97229 
L 236.285581 182.404348 
L 236.332237 182.491792 
L 236.356716 182.55596 
L 236.414923 182.389506 
L 236.432018 182.391824 
L 236.564276 181.609945 
L 236.625823 181.894405 
L 236.858188 183.844077 
L 236.876453 183.767156 
L 237.110881 182.664531 
L 236.914203 183.826953 
L 237.178086 182.806949 
L 237.263436 182.852225 
L 237.204756 182.752695 
L 237.281409 182.766022 
L 237.467141 182.104086 
L 237.50169 182.222988 
L 237.502357 182.224708 
L 237.525338 182.060168 
L 237.669047 180.945136 
L 237.719022 181.303813 
L 238.08232 183.551827 
L 238.088522 183.523196 
L 238.230758 182.939434 
L 238.272579 182.968334 
L 238.272638 182.968381 
L 238.319794 182.826894 
L 238.379811 182.329558 
L 238.443345 182.607474 
L 238.478629 182.671402 
L 238.508196 182.543546 
L 238.549884 182.560876 
L 238.550823 182.559401 
L 238.601533 182.86822 
L 238.825728 184.196205 
L 238.858259 184.115392 
L 238.903207 183.558517 
L 239.068395 181.756406 
L 239.105769 182.044635 
L 239.196735 182.968217 
L 239.253471 182.543295 
L 239.341467 181.701122 
L 239.394945 181.868267 
L 239.524782 181.989275 
L 239.495818 181.839127 
L 239.525846 181.985875 
L 239.597935 181.818994 
L 239.630195 182.032433 
L 239.933983 184.661323 
L 239.999681 184.149788 
L 240.061808 183.677974 
L 240.123072 183.887375 
L 240.184157 183.776445 
L 240.272851 182.952749 
L 240.345482 183.352447 
L 240.449289 184.032034 
L 240.498938 183.821451 
L 240.71298 182.717977 
L 240.738832 182.936795 
L 240.7824 183.200853 
L 240.85464 182.953878 
L 240.953126 181.820217 
L 241.01392 182.12261 
L 241.018695 182.117869 
L 241.084814 182.45897 
L 241.183919 183.401421 
L 241.220437 183.001484 
L 241.256711 182.691225 
L 241.328391 183.066319 
L 241.333982 183.072007 
L 241.387727 182.689627 
L 241.390024 182.684108 
L 241.464475 183.076262 
L 241.527472 183.363374 
L 241.592738 183.315388 
L 241.732794 183.665304 
L 241.763549 183.525824 
L 241.878395 182.088313 
L 241.941072 182.499359 
L 241.999766 183.005399 
L 242.071978 182.801717 
L 242.148294 183.026843 
L 242.198104 182.899373 
L 242.220369 182.793974 
L 242.281363 183.097554 
L 242.390308 183.754661 
L 242.417448 183.623504 
L 242.650717 182.073015 
L 242.418106 183.623885 
L 242.739382 182.280922 
L 242.826417 182.175903 
L 242.978656 183.827216 
L 243.11761 184.445438 
L 243.12262 184.460831 
L 243.182646 184.037137 
L 243.243781 183.149437 
L 243.414273 181.891713 
L 243.428312 181.900503 
L 243.492268 181.636434 
L 243.53337 181.938914 
L 243.682898 182.807037 
L 243.755607 183.555825 
L 243.802555 182.884431 
L 243.85457 182.65855 
L 243.905382 183.054157 
L 244.00104 184.265424 
L 244.049356 183.322634 
L 244.250234 181.590198 
L 244.25178 181.583684 
L 244.281382 181.804111 
L 244.431742 182.382764 
L 244.432684 182.381072 
L 244.508028 182.933687 
L 244.556733 182.414988 
L 244.584602 182.08517 
L 244.631191 182.913302 
L 244.662993 183.527007 
L 244.762165 183.387714 
L 244.92817 181.453306 
L 245.002414 182.075713 
L 245.023871 182.139804 
L 245.048601 181.828943 
L 245.110465 181.044413 
L 245.170332 181.543646 
L 245.346235 182.741827 
L 245.376157 182.503468 
L 245.460188 182.142936 
L 245.508783 182.183734 
L 245.560762 181.984119 
L 245.58834 182.334544 
L 245.613243 182.823822 
L 245.683907 182.035774 
L 245.69002 182.041978 
L 245.853939 182.508279 
L 245.690893 182.040105 
L 245.873926 182.40457 
L 245.89899 182.318426 
L 245.933086 182.719891 
L 245.958776 183.237232 
L 246.029243 182.71326 
L 246.050334 182.825911 
L 246.060042 182.801149 
L 246.077543 183.002578 
L 246.163728 184.459613 
L 246.268444 183.642168 
L 246.35068 182.041686 
L 246.434804 182.618829 
L 246.612087 183.346307 
L 246.47715 182.538683 
L 246.629496 183.216093 
L 246.637928 183.159322 
L 246.685476 183.785335 
L 246.725747 183.448582 
L 246.734989 183.484183 
L 246.779147 182.952421 
L 246.779289 182.95272 
L 246.803374 183.090069 
L 246.912789 182.384379 
L 247.000251 181.865522 
L 247.030406 182.237935 
L 247.175114 183.443332 
L 247.211041 183.180837 
L 247.283439 182.591959 
L 247.333053 183.017198 
L 247.338012 183.020984 
L 247.355187 182.787758 
L 247.475855 182.047644 
L 247.419039 182.854636 
L 247.493195 182.05984 
L 247.525574 182.143872 
L 247.550661 181.703013 
L 247.613358 181.543184 
L 247.645666 182.078961 
L 247.653963 182.176184 
L 247.715409 181.663601 
L 247.743453 181.418395 
L 247.78676 182.064639 
L 247.926279 183.235564 
L 248.014902 184.191148 
L 248.064802 183.642502 
L 248.068751 183.62231 
L 248.10914 184.068115 
L 248.115684 184.045073 
L 248.152406 184.246298 
L 248.171013 183.905079 
L 248.229207 183.05507 
L 248.309485 183.479589 
L 248.452888 184.714418 
L 248.47721 184.51485 
L 248.541725 182.500582 
L 248.641769 182.84749 
L 248.759974 183.46508 
L 248.715954 182.785201 
L 248.775197 183.360049 
L 248.938219 182.454493 
L 248.785066 183.433154 
L 248.975645 183.026931 
L 249.002638 183.390465 
L 249.061412 182.480239 
L 249.155458 182.180802 
L 249.184507 182.223719 
L 249.395084 184.072136 
L 249.434997 183.146289 
L 249.572928 181.821036 
L 249.590128 182.049768 
L 249.803475 184.506896 
L 249.84538 183.765412 
L 249.853145 183.693086 
L 249.888998 184.559494 
L 249.895255 184.594317 
L 249.942546 184.017402 
L 249.943067 184.018128 
L 249.969722 183.753397 
L 249.997684 184.152252 
L 250.036785 184.532162 
L 250.087493 183.596003 
L 250.229473 181.955155 
L 250.245344 182.506078 
L 250.351071 184.808194 
L 250.386947 184.63762 
L 250.580701 182.447523 
L 250.59566 182.784703 
L 250.682796 184.674433 
L 250.739911 183.421859 
L 250.797014 180.738849 
L 250.889361 182.598795 
L 251.03035 183.552301 
L 251.033884 183.544254 
L 251.034353 183.545665 
L 251.072418 183.269006 
L 251.104393 182.748124 
L 251.14787 183.428642 
L 251.343237 185.390447 
L 251.361599 185.067787 
L 251.508379 180.991459 
L 251.620163 181.97551 
L 251.719562 184.008389 
L 251.77298 184.410849 
L 251.825159 183.828738 
L 251.971434 180.710949 
L 252.01715 181.720787 
L 252.077046 183.24233 
L 252.142815 182.152282 
L 252.265976 183.418599 
L 252.145854 182.137259 
L 252.310927 183.005364 
L 252.45878 181.166487 
L 252.349215 183.579241 
L 252.544595 181.697722 
L 252.630536 184.021792 
L 252.720433 183.292604 
L 252.851603 180.919642 
L 252.873663 181.358687 
L 252.89194 181.625788 
L 252.962078 180.914322 
L 252.973461 181.09028 
L 252.975722 181.077094 
L 253.033194 182.312948 
L 253.203781 184.364813 
L 253.21195 184.472044 
L 253.262438 183.878637 
L 253.287037 183.99113 
L 253.287278 183.989403 
L 253.315998 184.352996 
L 253.340285 184.618728 
L 253.37671 182.972496 
L 253.427367 181.267169 
L 253.505894 181.537431 
L 253.521737 181.275105 
L 253.59431 181.821733 
L 253.668689 182.789151 
L 253.709998 181.95948 
L 253.795868 181.25262 
L 253.722379 181.968862 
L 253.865471 181.661465 
L 254.008806 183.379773 
L 254.028428 183.171355 
L 254.131806 182.455939 
L 254.101938 183.2911 
L 254.157886 182.963453 
L 254.242651 186.440942 
L 254.29016 184.526567 
L 254.374049 183.630182 
L 254.324629 184.52882 
L 254.405766 184.351276 
L 254.517514 184.677447 
L 254.478389 183.905266 
L 254.524728 184.572451 
L 254.615491 183.501518 
L 254.651535 183.69476 
L 254.653918 183.668353 
L 254.699345 184.17053 
L 254.70653 184.327309 
L 254.782222 183.063802 
L 254.828345 182.098549 
L 254.890561 183.139031 
L 254.912153 183.713312 
L 255.000707 183.075501 
L 255.010228 182.932475 
L 255.062078 183.903095 
L 255.064111 183.915274 
L 255.108355 183.223122 
L 255.143385 181.452755 
L 255.234466 182.283972 
L 255.314079 181.821774 
L 255.26835 182.462915 
L 255.341849 182.419103 
L 255.377816 183.365358 
L 255.410949 184.073523 
L 255.477664 183.331348 
L 255.493015 183.655237 
L 255.493023 183.65522 
L 255.505411 183.89201 
L 255.543069 184.550639 
L 255.57313 183.166474 
L 255.60199 183.555953 
L 255.651772 183.130569 
L 255.737341 183.156162 
L 255.840603 183.866902 
L 255.799548 182.677618 
L 255.85708 183.419488 
L 256.021037 180.862462 
L 256.02645 180.974059 
L 256.204332 184.240433 
L 256.214882 184.088763 
L 256.273474 182.0677 
L 256.386589 182.898647 
L 256.495598 184.585128 
L 256.390641 182.895663 
L 256.521218 183.925528 
L 256.614583 183.376378 
L 256.632111 183.93893 
L 256.649046 184.279839 
L 256.6932 183.270586 
L 256.897645 181.041856 
L 256.908464 181.475241 
L 256.971296 184.298672 
L 257.044366 182.363667 
L 257.101837 181.865036 
L 257.122653 182.869613 
L 257.19292 184.523547 
L 257.245939 183.707928 
L 257.261601 183.382412 
L 257.313557 185.310746 
L 257.341678 185.761789 
L 257.36716 184.924328 
L 257.430701 182.774789 
L 257.494598 183.927453 
L 257.501068 183.902205 
L 257.525251 184.540689 
L 257.535871 184.516343 
L 257.543657 184.59077 
L 257.582253 183.376706 
L 257.630336 181.888453 
L 257.699162 183.110207 
L 257.738011 184.049346 
L 257.797544 182.795981 
L 257.840867 180.754803 
L 257.906807 182.988842 
L 257.911726 183.054514 
L 257.977735 181.881195 
L 257.997462 181.374085 
L 258.087245 181.948746 
L 258.238847 184.317787 
L 258.288343 182.963904 
L 258.313639 182.258525 
L 258.364349 184.51852 
L 258.366906 184.564486 
L 258.423964 183.252724 
L 258.455284 183.709058 
L 258.598356 182.466936 
L 258.455989 183.710456 
L 258.61671 182.991083 
L 258.648016 183.706213 
L 258.688012 182.878631 
L 258.728208 183.006394 
L 258.778243 181.164222 
L 258.835438 183.273396 
L 258.875474 184.358346 
L 258.912281 183.200443 
L 258.951343 183.692975 
L 259.003858 184.49319 
L 259.068381 183.736155 
L 259.17153 182.190792 
L 259.199139 182.629925 
L 259.25582 183.437514 
L 259.286388 182.616575 
L 259.310528 182.64482 
L 259.32621 182.250483 
L 259.372286 183.352657 
L 259.372925 183.347425 
L 259.372992 183.347531 
L 259.379886 183.200039 
L 259.45277 181.926102 
L 259.418894 183.423901 
L 259.493333 183.093118 
L 259.495626 183.104665 
L 259.531955 181.965373 
L 259.571304 181.225013 
L 259.619837 183.385122 
L 259.619921 183.384156 
L 259.61998 183.383559 
L 259.678196 184.108498 
L 259.685099 184.061976 
L 259.745867 185.837077 
L 259.804276 184.672695 
L 259.881351 183.054807 
L 259.954851 183.499201 
L 260.023544 185.010601 
L 260.083255 184.244823 
L 260.23984 182.675324 
L 260.245617 183.05167 
L 260.357445 184.91875 
L 260.3732 184.488408 
L 260.414473 185.162283 
L 260.495313 183.37155 
L 260.567701 182.801746 
L 260.593689 183.725433 
L 260.598837 183.603436 
L 260.621289 184.016243 
L 260.644804 183.047585 
L 260.667172 182.426471 
L 260.733607 184.393315 
L 260.733733 184.395235 
L 260.757395 183.070345 
L 260.78626 183.270019 
L 260.853899 181.841766 
L 260.908588 182.935876 
L 261.07928 185.477007 
L 260.932379 182.683424 
L 261.093623 184.768426 
L 261.161954 182.466362 
L 261.211498 183.769562 
L 261.211694 183.768573 
L 261.220761 184.184634 
L 261.320674 184.653785 
L 261.270097 182.208379 
L 261.332047 184.196808 
L 261.377244 182.271933 
L 261.45825 183.677132 
L 261.458598 183.68052 
L 261.474043 183.368272 
L 261.577728 180.755143 
L 261.60816 181.995936 
L 261.762638 184.936841 
L 261.621062 181.819585 
L 261.782923 183.949354 
L 261.912785 182.197429 
L 261.857438 184.325302 
L 261.923571 182.86129 
L 261.952562 184.899993 
L 262.039739 183.33256 
L 262.12257 181.285459 
L 262.151731 183.288963 
L 262.180833 183.934681 
L 262.227314 182.691974 
L 262.26699 183.790421 
L 262.33652 184.274454 
L 262.308993 183.32659 
L 262.346158 183.554028 
L 262.387184 181.932189 
L 262.457921 183.494507 
L 262.465152 183.862314 
L 262.511929 181.952 
L 262.558413 182.669658 
L 262.594561 181.04477 
L 262.657155 183.706008 
L 262.661042 183.685998 
L 262.718654 184.604775 
L 262.685069 182.755177 
L 262.744782 183.144041 
L 262.779785 182.411354 
L 262.842571 183.672748 
L 262.842599 183.672654 
L 262.859471 183.937169 
L 262.892744 182.982808 
L 262.945295 182.246574 
L 262.989941 183.768345 
L 263.109211 184.672303 
L 263.043881 183.194573 
L 263.110662 184.654008 
L 263.187227 183.293447 
L 263.233106 184.004924 
L 263.236245 184.055754 
L 263.314283 182.656431 
L 263.352041 181.795671 
L 263.40903 183.588886 
L 263.487711 183.980443 
L 263.50346 182.609769 
L 263.532344 181.143861 
L 263.581641 183.416784 
L 263.614415 182.630633 
L 263.633869 183.56667 
L 263.721527 182.222982 
L 263.731041 181.765513 
L 263.772005 182.911225 
L 263.821878 182.612075 
L 263.84349 182.232574 
L 263.857828 182.928507 
L 263.919436 184.871373 
L 263.965821 182.642514 
L 263.966463 182.630171 
L 264.009539 183.744905 
L 264.019102 184.196925 
L 264.06102 182.665076 
L 264.120194 183.717696 
L 264.130383 183.082355 
L 264.220701 184.797162 
L 264.224903 184.949213 
L 264.254966 182.975995 
L 264.313974 184.202561 
L 264.431854 182.721033 
L 264.44483 183.376776 
L 264.543675 184.71989 
L 264.476358 182.935788 
L 264.557649 183.540151 
L 264.594377 181.63531 
L 264.652565 184.509688 
L 264.658491 184.329071 
L 264.668605 184.218006 
L 264.734251 182.727271 
L 264.783331 183.803653 
L 264.802881 184.205353 
L 264.81301 183.180743 
L 264.859924 181.688188 
L 264.910919 184.501881 
L 264.913745 184.47394 
L 264.972285 182.849696 
L 265.005593 184.954071 
L 265.016798 185.779622 
L 265.093919 182.998826 
L 265.106629 183.250799 
L 265.111069 183.232351 
L 265.166889 184.758892 
L 265.176367 185.150543 
L 265.251535 183.085983 
L 265.272547 183.947446 
L 265.332031 181.729595 
L 265.272579 183.947563 
L 265.398609 183.613315 
L 265.429745 185.824376 
L 265.504201 183.403195 
L 265.604283 182.421607 
L 265.618459 183.096009 
L 265.689612 186.140359 
L 265.729633 183.101212 
L 265.743894 181.924341 
L 265.821664 183.439715 
L 265.847456 182.455231 
L 265.877633 184.993675 
L 265.927647 182.403429 
L 265.968637 183.196042 
L 265.968814 183.197856 
L 265.998421 181.658141 
L 266.009751 181.75475 
L 266.016723 181.410178 
L 266.083931 184.742505 
L 266.087152 184.982555 
L 266.15992 181.578405 
L 266.169198 181.897752 
L 266.196291 181.815418 
L 266.212152 182.559694 
L 266.296225 184.410053 
L 266.327239 182.905653 
L 266.397442 182.360214 
L 266.418882 183.816769 
L 266.439577 182.720564 
L 266.494889 181.142497 
L 266.462076 183.234798 
L 266.551894 182.644352 
L 266.625537 180.700784 
L 266.571664 183.877566 
L 266.649977 182.84152 
L 266.697957 184.132154 
L 266.658095 182.74219 
L 266.761775 182.899344 
L 266.798326 182.413543 
L 266.848773 183.453106 
L 266.869353 183.078258 
L 266.987167 184.742639 
L 266.889094 182.716825 
L 267.050363 183.782754 
L 267.103744 182.57772 
L 267.146511 183.847279 
L 267.174399 183.185162 
L 267.216084 185.389504 
L 267.265765 182.979056 
L 267.290831 183.488578 
L 267.383625 182.566301 
L 267.348733 184.747965 
L 267.414643 182.579364 
L 267.483593 180.773198 
L 267.445164 182.978249 
L 267.503412 182.859616 
L 267.553178 184.91861 
L 267.526279 182.208391 
L 267.618008 183.459666 
L 267.670065 180.553696 
L 267.71549 183.900678 
L 267.718607 184.036956 
L 267.748504 182.28111 
L 267.801727 182.418985 
L 267.888082 181.463969 
L 267.840271 183.315347 
L 267.901325 182.61002 
L 267.965196 184.493447 
L 268.014864 182.996661 
L 268.08778 182.520475 
L 268.059341 184.600292 
L 268.102762 183.983006 
L 268.118257 184.804759 
L 268.194208 182.8234 
L 268.20588 182.928209 
L 268.272054 181.305521 
L 268.206727 182.934495 
L 268.337766 182.151445 
L 268.437792 183.849813 
L 268.461831 183.375957 
L 268.495515 182.847894 
L 268.547 184.482872 
L 268.549355 184.457676 
L 268.564287 184.932814 
L 268.605858 182.777229 
L 268.693451 181.735618 
L 268.634041 184.040777 
L 268.703899 183.232743 
L 268.712203 184.179104 
L 268.809065 182.273806 
L 268.813622 182.022325 
L 268.868229 184.858369 
L 268.912164 182.80843 
L 268.934366 184.759846 
L 269.005231 182.18501 
L 269.031412 183.83658 
L 269.098193 181.208561 
L 269.138631 183.954422 
L 269.140149 184.021973 
L 269.166915 182.105959 
L 269.238808 182.943689 
L 269.293882 182.453744 
L 269.256221 184.097682 
L 269.346152 183.195843 
L 269.412019 184.80291 
L 269.36548 182.977037 
L 269.474059 184.154815 
L 269.52667 181.825385 
L 269.584394 184.269503 
L 269.591293 184.866042 
L 269.648436 182.255247 
L 269.690151 183.146084 
L 269.69057 183.14132 
L 269.716619 184.591947 
L 269.719246 184.654868 
L 269.80589 182.099486 
L 269.81265 182.376378 
L 269.93562 185.102177 
L 269.948452 184.724766 
L 269.991121 182.159721 
L 270.087871 183.032877 
L 270.121939 182.536687 
L 270.131984 183.904587 
L 270.140246 184.591993 
L 270.191191 181.240113 
L 270.225881 181.556212 
L 270.254999 181.340807 
L 270.289257 183.743354 
L 270.306284 184.996666 
L 270.332013 183.001519 
L 270.40361 184.518151 
L 270.512263 182.592082 
L 270.452258 184.775613 
L 270.528963 183.133337 
L 270.647722 184.376992 
L 270.559491 180.39111 
L 270.651233 184.203603 
L 270.784611 182.661231 
L 270.732675 184.638323 
L 270.789105 183.180286 
L 270.84369 184.747052 
L 270.82101 181.600048 
L 270.898852 182.779939 
L 270.899007 182.778499 
L 270.914501 183.662096 
L 270.918022 183.937175 
L 270.934995 180.9545 
L 270.938652 180.822693 
L 271.013979 183.882365 
L 271.035493 182.785616 
L 271.078939 184.732854 
L 271.126492 182.078551 
L 271.154313 184.036353 
L 271.260927 181.231984 
L 271.217071 184.649963 
L 271.305395 183.47915 
L 271.318501 185.513205 
L 271.363259 182.69191 
L 271.406885 182.886661 
L 271.424125 181.626361 
L 271.510952 183.609048 
L 271.538639 184.385197 
L 271.59176 181.57535 
L 271.613154 182.152985 
L 271.645651 181.580448 
L 271.669923 182.684729 
L 271.783885 184.244436 
L 271.756862 181.373154 
L 271.786927 184.14685 
L 271.787168 184.154821 
L 271.802155 182.731643 
L 271.895099 181.506272 
L 271.853992 184.332424 
L 271.908539 183.092076 
L 272.002277 186.442985 
L 272.037705 185.148676 
L 272.173521 181.349603 
L 272.178492 181.438446 
L 272.251744 185.380152 
L 272.181398 181.424786 
L 272.330412 184.119483 
L 272.415134 182.180468 
L 272.393192 185.096131 
L 272.443593 183.977429 
L 272.506766 184.678542 
L 272.520713 183.105145 
L 272.55567 184.066523 
L 272.650838 182.75458 
L 272.568837 184.831564 
L 272.660774 184.333296 
L 272.665735 184.492751 
L 272.70209 182.393146 
L 272.733293 182.511404 
L 272.830666 182.234394 
L 272.791417 184.141401 
L 272.843042 182.63394 
L 272.854859 182.199981 
L 272.916022 184.357503 
L 273.005153 184.969399 
L 272.957642 182.577544 
L 273.020543 183.688094 
L 273.138583 182.067712 
L 273.06465 184.616732 
L 273.146192 182.866669 
L 273.18889 184.923128 
L 273.226768 182.19939 
L 273.257778 182.928472 
L 273.258348 182.913683 
L 273.27425 183.71357 
L 273.319897 185.041263 
L 273.286274 182.032913 
L 273.373115 183.073769 
L 273.495718 180.344939 
L 273.442807 184.272535 
L 273.506039 180.781561 
L 273.508555 180.694428 
L 273.549173 184.770369 
L 273.557472 185.654335 
L 273.642222 182.238684 
L 273.646961 181.872212 
L 273.725964 185.79272 
L 273.726298 185.801803 
L 273.737858 184.660603 
L 273.808038 182.513101 
L 273.831955 184.918803 
L 273.85681 182.921496 
L 273.858791 182.786383 
L 273.924433 184.925972 
L 273.944329 184.275812 
L 273.95359 184.92211 
L 274.036554 182.068274 
L 274.053595 183.93467 
L 274.062916 184.696023 
L 274.112275 182.523355 
L 274.130848 182.750278 
L 274.22691 181.967024 
L 274.239099 183.353518 
L 274.305224 184.517782 
L 274.256508 182.069322 
L 274.333374 182.805357 
L 274.361926 180.574502 
L 274.386877 184.855296 
L 274.441802 183.403909 
L 274.446274 183.9056 
L 274.539902 181.624863 
L 274.550281 182.946054 
L 274.614525 181.92811 
L 274.566727 183.512837 
L 274.647683 183.116089 
L 274.723479 184.250798 
L 274.67891 182.39664 
L 274.75704 182.768538 
L 274.761901 182.392491 
L 274.781168 183.84118 
L 274.829948 185.410515 
L 274.804427 183.067758 
L 274.890714 183.551985 
L 274.965044 182.453773 
L 274.928423 184.273202 
L 274.988131 183.936074 
L 275.023934 184.476112 
L 275.071254 182.38655 
L 275.092359 183.010976 
L 275.129542 182.243758 
L 275.160861 184.488332 
L 275.170445 185.555888 
L 275.250036 181.659042 
L 275.265749 183.050031 
L 275.350634 185.689954 
L 275.368482 182.594757 
L 275.384406 181.931346 
L 275.440435 185.752079 
L 275.476334 183.014295 
L 275.607007 185.659748 
L 275.519228 181.638435 
L 275.614005 184.90804 
L 275.658582 181.629176 
L 275.738508 183.373013 
L 275.818203 184.970048 
L 275.837407 182.524525 
L 275.881973 181.905437 
L 275.913985 185.141266 
L 275.943971 184.145083 
L 275.967509 183.456412 
L 276.007408 185.268098 
L 276.00917 185.5373 
L 276.069178 182.254557 
L 276.106499 182.631359 
L 276.147592 181.720963 
L 276.18089 183.881089 
L 276.27575 186.319957 
L 276.262156 183.15862 
L 276.29051 183.493969 
L 276.320091 180.45608 
L 276.378764 184.555257 
L 276.402746 183.401439 
L 276.403086 183.413513 
L 276.408348 182.659972 
L 276.411742 181.961101 
L 276.50358 185.200752 
L 276.503808 185.214857 
L 276.576258 182.079072 
L 276.585755 182.260555 
L 276.597977 181.61427 
L 276.633703 184.177775 
L 276.688964 183.84849 
L 276.702338 184.22414 
L 276.769307 181.00578 
L 276.776086 180.888494 
L 276.791327 182.920548 
L 276.85471 182.752578 
L 276.944478 184.334362 
L 276.905926 181.846074 
L 276.97456 184.229928 
L 277.002312 184.887082 
L 277.010269 182.62522 
L 277.053212 182.814645 
L 277.103278 180.463835 
L 277.138235 184.761485 
L 277.158535 183.913951 
L 277.242217 184.813058 
L 277.217979 182.71995 
L 277.263154 182.933863 
L 277.381452 181.347935 
L 277.335385 184.387205 
L 277.382744 181.39221 
L 277.428705 185.138457 
L 277.511671 183.9935 
L 277.542011 181.704704 
L 277.597234 185.153621 
L 277.597235 185.153603 
L 277.597594 185.164589 
L 277.629559 182.178016 
L 277.675525 182.904798 
L 277.724933 181.554456 
L 277.775361 184.544739 
L 277.845667 185.012608 
L 277.874849 182.213717 
L 277.87718 181.923697 
L 277.8898 184.481953 
L 277.982817 183.081085 
L 277.993291 181.832209 
L 278.01471 184.61634 
L 278.094189 183.06437 
L 278.17381 186.180701 
L 278.198653 182.407333 
L 278.212746 181.759204 
L 278.252919 184.618857 
L 278.278409 183.781864 
L 278.317195 185.574774 
L 278.378707 182.515565 
L 278.379756 182.529828 
L 278.394017 181.225212 
L 278.431332 183.734019 
L 278.504767 184.093504 
L 278.533676 182.076444 
L 278.539607 182.825958 
L 278.656527 184.465852 
L 278.629445 181.986378 
L 278.656617 184.464963 
L 278.782797 181.838571 
L 278.751819 185.482988 
L 278.788106 182.785446 
L 278.856017 184.770615 
L 278.871936 182.541369 
L 278.902913 183.293119 
L 279.007242 181.895435 
L 278.953569 184.396323 
L 279.016783 183.026755 
L 279.130924 184.64366 
L 279.078397 181.105474 
L 279.13181 184.536516 
L 279.18314 182.373891 
L 279.155578 186.336198 
L 279.239397 185.078918 
L 279.312829 181.308243 
L 279.436245 182.495409 
L 279.507422 184.440984 
L 279.542498 182.048785 
L 279.552409 181.302466 
L 279.5885 183.486021 
L 279.637616 186.026075 
L 279.681487 181.916797 
L 279.697282 182.950361 
L 279.698033 182.872287 
L 279.707546 183.503655 
L 279.799391 186.40657 
L 279.749909 182.787348 
L 279.819828 183.743951 
L 279.825859 184.359042 
L 279.874686 182.285868 
L 279.893531 182.731889 
L 279.920537 181.770429 
L 279.961263 184.913512 
L 280.000454 183.641571 
L 280.087847 185.12523 
L 280.066453 182.092603 
L 280.110098 183.133015 
L 280.129016 184.024882 
L 280.154559 181.597976 
L 280.220652 180.309683 
L 280.260218 184.114269 
L 280.260638 184.150783 
L 280.275821 181.003931 
L 280.355251 182.243735 
L 280.356257 182.147975 
L 280.39334 184.345177 
L 280.453323 184.579475 
L 280.496711 182.094107 
L 280.498813 182.252075 
L 280.54491 181.287566 
L 280.575831 185.163717 
L 280.602332 183.439229 
L 280.610608 185.327332 
L 280.649783 179.803614 
L 280.650165 179.812703 
L 280.651919 179.92371 
L 280.754189 183.985704 
L 280.792026 182.841842 
L 280.798844 181.491084 
L 280.894126 184.246426 
L 280.901782 183.209514 
L 281.008094 181.699308 
L 280.962474 183.762562 
L 281.01334 183.150707 
L 281.024605 184.728195 
L 281.097119 181.017778 
L 281.123667 182.791878 
L 281.160911 181.342908 
L 281.183033 183.84396 
L 281.232801 183.499019 
L 281.247269 184.433704 
L 281.329101 182.222958 
L 281.342127 182.998212 
L 281.3606 181.953539 
L 281.377959 183.900133 
L 281.443004 183.361173 
L 281.516368 184.642437 
L 281.529524 181.473123 
L 281.552943 183.033374 
L 281.560516 182.558236 
L 281.569802 184.487202 
L 281.57187 184.681831 
L 281.669968 181.605438 
L 281.671646 181.77404 
L 281.702603 180.824578 
L 281.692954 184.271616 
L 281.772406 183.435331 
L 281.789701 184.386163 
L 281.872849 181.95725 
L 281.873092 181.966837 
L 281.959325 185.549433 
L 281.91464 181.357013 
L 281.996332 183.177594 
L 282.107313 181.192168 
L 282.007273 185.329831 
L 282.111498 182.57535 
L 282.132359 183.474637 
L 282.160066 179.598077 
L 282.21947 181.232118 
L 282.220783 180.912039 
L 282.24468 184.173684 
L 282.320125 182.473093 
L 282.384551 184.877507 
L 282.405416 181.605526 
L 282.433246 183.227406 
L 282.453671 180.265104 
L 282.495636 185.804495 
L 282.546592 182.136609 
L 282.576277 183.91854 
L 282.556895 180.335874 
L 282.657842 182.154928 
L 282.679036 180.562557 
L 282.737243 184.304127 
L 282.766434 182.815259 
L 282.878105 181.211903 
L 282.778545 186.229611 
L 282.88641 181.918254 
L 282.910844 184.063433 
L 282.942295 180.840374 
L 282.998633 182.321996 
L 283.054088 184.320942 
L 283.087139 181.234693 
L 283.09938 181.372903 
L 283.102324 180.493391 
L 283.135345 185.171507 
L 283.20762 182.878953 
L 283.275155 184.757669 
L 283.227161 180.845173 
L 283.315281 181.655185 
L 283.315752 181.625571 
L 283.389873 184.217105 
L 283.423229 182.489316 
L 283.482169 183.648448 
L 283.469563 181.00358 
L 283.540423 182.775971 
L 283.574624 180.428719 
L 283.557374 184.780365 
L 283.654582 182.049271 
L 283.697546 185.095189 
L 283.661166 181.250355 
L 283.777236 184.269965 
L 283.901154 180.796327 
L 283.802723 185.136262 
L 283.903197 181.296134 
L 283.985495 184.965471 
L 284.017672 183.109499 
L 284.095503 181.01851 
L 284.074258 184.554063 
L 284.128515 183.172637 
L 284.199891 184.556538 
L 284.167508 182.036483 
L 284.236352 182.785095 
L 284.244792 181.541422 
L 284.306438 184.625728 
L 284.347814 182.601686 
L 284.453961 184.601305 
L 284.367973 182.095436 
L 284.470139 184.377472 
L 284.485252 181.471958 
L 284.535976 184.689802 
L 284.585262 183.531016 
L 284.626728 185.501424 
L 284.680294 182.250682 
L 284.693971 182.972911 
L 284.700897 183.976334 
L 284.71036 181.302765 
L 284.792617 182.161529 
L 284.794494 181.545935 
L 284.852988 184.860815 
L 284.901743 183.254176 
L 284.960617 181.624799 
L 284.939636 184.629784 
L 285.009368 183.853137 
L 285.032725 184.852733 
L 285.045751 181.9417 
L 285.10675 182.023923 
L 285.108318 181.626233 
L 285.16118 184.936642 
L 285.199219 183.525245 
L 285.209166 184.682241 
L 285.240985 181.009467 
L 285.311454 184.011274 
L 285.395753 182.074162 
L 285.410562 184.911376 
L 285.418312 186.445835 
L 285.472425 181.805205 
L 285.51744 182.615779 
L 285.522533 181.962974 
L 285.608879 185.202754 
L 285.610339 185.447574 
L 285.667525 181.898601 
L 285.715562 183.814346 
L 285.723637 181.109968 
L 285.738477 184.778013 
L 285.826848 183.74518 
L 285.84523 185.187338 
L 285.864116 181.514161 
L 285.935139 182.866019 
L 285.943384 181.063762 
L 285.968859 185.394608 
L 286.045722 183.144744 
L 286.062157 184.366586 
L 286.109917 180.95014 
L 286.156199 182.761439 
L 286.271848 184.796442 
L 286.196585 181.957408 
L 286.278757 183.425634 
L 286.38129 181.767889 
L 286.290167 184.877442 
L 286.394547 181.984851 
L 286.474138 185.400086 
L 286.433045 181.438218 
L 286.509229 183.516688 
L 286.599297 181.337851 
L 286.519933 184.74302 
L 286.61946 183.661482 
L 286.622811 185.216373 
L 286.725899 181.131851 
L 286.7259 181.131863 
L 286.731671 181.09337 
L 286.739132 183.360582 
L 286.831736 185.225988 
L 286.811079 181.74116 
L 286.847711 182.189329 
L 286.864502 181.380634 
L 286.913753 185.00692 
L 286.958008 182.76244 
L 287.042116 185.565802 
L 287.052655 181.298557 
L 287.072777 183.270083 
L 287.15069 180.969775 
L 287.13493 184.545272 
L 287.178329 184.22215 
L 287.181529 185.043001 
L 287.21134 182.181785 
L 287.284651 182.831817 
L 287.290307 181.888687 
L 287.331149 184.877519 
L 287.369775 185.425837 
L 287.394012 181.669665 
L 287.441141 184.353909 
L 287.483775 181.584199 
L 287.548138 185.440481 
L 287.551823 186.246115 
L 287.645011 181.974849 
L 287.656703 183.344569 
L 287.671602 180.719289 
L 287.734474 184.973232 
L 287.768287 183.124897 
L 287.849278 182.309407 
L 287.818328 185.485669 
L 287.876496 183.316026 
L 287.912844 184.518344 
L 287.957817 180.968037 
L 287.983783 181.987836 
L 287.98661 181.779758 
L 288.030917 184.538307 
L 288.09334 182.428689 
L 288.153025 185.181983 
L 288.141652 182.061819 
L 288.206479 183.230443 
L 288.292184 181.276545 
L 288.232854 185.329931 
L 288.317768 183.122855 
L 288.415057 185.776397 
L 288.372071 180.938534 
L 288.432944 184.165491 
L 288.479309 181.357522 
L 288.516982 185.362454 
L 288.544191 184.058265 
L 288.580472 180.194445 
L 288.646921 184.747509 
L 288.665856 182.681434 
L 288.747862 185.734533 
L 288.755918 182.222473 
L 288.778262 183.557224 
L 288.805918 180.95488 
L 288.788555 185.465606 
L 288.889389 183.552331 
L 288.945453 183.70619 
L 288.969565 180.890595 
L 288.987738 181.842855 
L 289.072372 181.374178 
L 289.083328 185.430678 
L 289.093277 183.196182 
L 289.128683 185.092093 
L 289.160692 181.242986 
L 289.204943 183.83037 
L 289.213763 184.910597 
L 289.239555 180.68566 
L 289.30574 182.886819 
L 289.412524 181.580986 
L 289.376229 184.311531 
L 289.416425 183.184541 
L 289.418781 185.171349 
L 289.46825 181.58956 
L 289.527827 183.465355 
L 289.610777 185.282928 
L 289.62758 181.380885 
L 289.634206 182.401071 
L 289.689194 181.000021 
L 289.682414 184.311823 
L 289.73734 183.53125 
L 289.81871 185.172402 
L 289.75867 181.439271 
L 289.846766 182.921642 
L 289.926687 179.610806 
L 289.898749 184.847132 
L 289.954137 183.962534 
L 290.062466 185.615591 
L 290.034534 181.280244 
L 290.06707 184.614461 
L 290.122838 181.004545 
L 290.074437 185.231156 
L 290.179533 183.493091 
L 290.23116 185.653521 
L 290.193663 181.097099 
L 290.273096 181.938405 
L 290.275867 181.368993 
L 290.292057 184.938959 
L 290.378378 183.383044 
L 290.401499 184.992938 
L 290.412632 181.891566 
L 290.487303 182.313106 
L 290.593572 184.498972 
L 290.505151 181.08712 
L 290.605917 183.144112 
L 290.71632 181.632495 
L 290.664739 185.537921 
L 290.718266 181.986759 
L 290.719782 182.097771 
L 290.72938 184.740164 
L 290.78692 180.773268 
L 290.829774 181.719336 
L 290.847525 181.27723 
L 290.909007 185.177523 
L 290.936588 183.718117 
L 290.947151 184.6716 
L 290.999726 181.703265 
L 291.042994 181.756798 
L 291.09683 180.845518 
L 291.056203 184.325782 
L 291.149573 183.37557 
L 291.190223 181.160605 
L 291.224166 184.915596 
L 291.263106 182.939247 
L 291.319775 184.828948 
L 291.366252 180.367835 
L 291.373804 182.361062 
L 291.427965 181.857522 
L 291.423482 184.396961 
L 291.441927 184.214243 
L 291.536035 184.482579 
L 291.466153 181.463483 
L 291.546701 183.047801 
L 291.576614 180.687422 
L 291.628748 184.904101 
L 291.655224 183.499751 
L 291.701583 184.853178 
L 291.721726 180.610806 
L 291.763892 181.618343 
L 291.79604 179.244129 
L 291.820026 184.927207 
L 291.874079 181.864545 
L 291.9802 184.9239 
L 291.885093 180.948208 
L 291.985884 182.727061 
L 292.075832 179.79274 
L 292.03092 184.321866 
L 292.097315 182.388166 
L 292.210446 185.03881 
L 292.132966 180.992068 
L 292.211113 184.987413 
L 292.234824 180.031643 
L 292.326399 182.831834 
L 292.398849 185.483649 
L 292.354603 181.814177 
L 292.4388 183.59334 
L 292.504178 180.611941 
L 292.497449 185.133336 
L 292.551134 183.322031 
L 292.611699 185.185711 
L 292.572361 180.803438 
L 292.662126 183.246333 
L 292.751022 185.342713 
L 292.702095 180.457303 
L 292.772909 183.144773 
L 292.776562 180.430978 
L 292.849899 185.376816 
L 292.882859 183.589647 
L 292.937784 182.204499 
L 292.974053 186.254022 
L 292.988789 184.340109 
L 293.048957 185.293182 
L 293.059396 181.0251 
L 293.098842 182.962505 
L 293.136538 182.028195 
L 293.141552 185.181081 
L 293.210692 182.617845 
L 293.246922 185.834431 
L 293.289707 181.836043 
L 293.326837 183.614667 
L 293.370636 181.867401 
L 293.395985 184.638358 
L 293.437989 183.573324 
L 293.542183 185.247743 
L 293.533587 180.938867 
L 293.549613 183.67005 
L 293.619547 180.618402 
L 293.581841 184.679829 
L 293.660574 183.784123 
L 293.720825 182.077989 
L 293.749216 185.569074 
L 293.770735 183.942126 
L 293.772186 185.095692 
L 293.817219 181.032626 
L 293.880412 182.738549 
L 293.951751 185.402667 
L 293.883755 181.412958 
L 293.987954 181.948816 
L 294.09931 180.894604 
L 294.037827 185.291538 
L 294.100886 181.160301 
L 294.13745 185.306948 
L 294.160331 180.636616 
L 294.213971 182.388253 
L 294.23202 180.37405 
L 294.273591 184.735271 
L 294.304811 184.553237 
L 294.380339 185.089997 
L 294.362497 181.36846 
L 294.414253 183.229519 
L 294.491952 180.93391 
L 294.514588 184.981683 
L 294.614548 186.04437 
L 294.603444 181.585089 
L 294.623164 182.904804 
L 294.648829 184.836884 
L 294.63986 181.659429 
L 294.735607 183.326479 
L 294.767991 181.140712 
L 294.832747 185.028697 
L 294.849904 181.955406 
L 294.858783 185.47308 
L 294.929301 181.436374 
L 294.962912 182.380159 
L 294.996904 181.18329 
L 295.006647 185.921032 
L 295.07458 181.781994 
L 295.10763 185.871689 
L 295.129944 181.055966 
L 295.1852 181.697757 
L 295.194878 180.175477 
L 295.275733 185.146036 
L 295.295328 183.702017 
L 295.31962 180.271214 
L 295.307293 184.451935 
L 295.410152 182.572804 
L 295.424465 185.659795 
L 295.458145 181.51601 
L 295.523405 183.60573 
L 295.613002 181.030753 
L 295.576664 185.149583 
L 295.635315 182.887568 
L 295.716047 185.838376 
L 295.656398 180.502737 
L 295.746304 182.853342 
L 295.796429 180.562633 
L 295.811206 184.607081 
L 295.856827 183.434828 
L 295.912319 185.292931 
L 295.866645 180.69225 
L 295.969203 184.409971 
L 295.986863 180.843084 
L 295.994475 185.47895 
L 296.080926 184.120759 
L 296.117993 185.169534 
L 296.150186 181.475668 
L 296.189357 182.637814 
L 296.199938 180.672293 
L 296.25552 186.076343 
L 296.286528 184.150221 
L 296.332402 185.436495 
L 296.349932 181.257635 
L 296.394923 182.581506 
L 296.466872 180.908727 
L 296.460011 185.038278 
L 296.497593 184.042966 
L 296.500402 185.689497 
L 296.56859 181.698676 
L 296.60823 183.502683 
L 296.699235 184.926066 
L 296.710583 181.261639 
L 296.710584 181.261697 
L 296.749242 180.457315 
L 296.782703 184.801019 
L 296.815201 182.727184 
L 296.847154 184.98183 
L 296.915643 181.06248 
L 296.927479 183.845675 
L 296.941432 184.845042 
L 296.981162 180.656333 
L 297.037255 183.320772 
L 297.10461 180.859161 
L 297.133162 184.842303 
L 297.149518 182.160031 
L 297.251176 180.030198 
L 297.178492 184.571778 
L 297.257904 182.659235 
L 297.344802 185.116123 
L 297.352588 180.191045 
L 297.369698 183.80514 
L 297.452648 185.417123 
L 297.464916 181.01295 
L 297.479457 182.843645 
L 297.545808 180.769622 
L 297.53545 185.466554 
L 297.590042 182.942279 
L 297.595782 185.427055 
L 297.631028 181.167277 
L 297.701655 183.806252 
L 297.710416 181.381623 
L 297.723929 186.123368 
L 297.813328 183.425001 
L 297.8436 185.44456 
L 297.899619 181.368179 
L 297.92171 182.086277 
L 298.000535 180.193404 
L 297.969891 185.602557 
L 298.031956 183.109605 
L 298.125474 184.709619 
L 298.13795 180.852062 
L 298.144029 183.58905 
L 298.158853 180.976787 
L 298.218549 185.398623 
L 298.256995 181.923217 
L 298.279318 180.759169 
L 298.323806 184.726837 
L 298.358894 183.25836 
L 298.435048 185.853827 
L 298.416648 181.466521 
L 298.468182 182.393515 
L 298.536089 181.457713 
L 298.550358 185.736699 
L 298.579155 182.495233 
L 298.614338 185.515728 
L 298.591543 179.624214 
L 298.689823 182.19953 
L 298.692221 181.663613 
L 298.770538 185.938016 
L 298.787076 184.793305 
L 298.801035 185.73211 
L 298.818564 181.085417 
L 298.897074 183.282221 
L 298.933284 185.587229 
L 298.951546 181.399058 
L 299.008854 183.409275 
L 299.070505 181.462102 
L 299.046161 185.175557 
L 299.119936 183.447827 
L 299.152575 185.713171 
L 299.201132 180.885609 
L 299.227679 182.861501 
L 299.239363 181.417154 
L 299.312154 186.603341 
L 299.338737 182.920325 
L 299.345924 185.67318 
L 299.401717 180.453903 
L 299.45224 184.095394 
L 299.486192 181.32267 
L 299.535932 185.470411 
L 299.562802 184.443325 
L 299.588998 184.788863 
L 299.597886 180.720185 
L 299.656916 182.404231 
L 299.751321 181.271208 
L 299.665845 185.408215 
L 299.768135 182.27397 
L 299.867481 185.963914 
L 299.771651 180.291048 
L 299.879692 182.627367 
L 299.982047 181.240997 
L 299.918558 185.927675 
L 299.98917 183.831389 
L 300.061779 185.25943 
L 300.082072 181.152751 
L 300.102054 184.417082 
L 300.118252 180.587992 
L 300.207813 186.261502 
L 300.216059 182.488936 
L 300.25972 185.430203 
L 300.319041 180.763377 
L 300.326209 181.236554 
L 300.327177 180.518961 
L 300.341088 185.149232 
L 300.42894 184.430602 
L 300.481813 185.618412 
L 300.447311 180.283136 
L 300.537823 183.336709 
L 300.615952 179.621598 
L 300.568761 185.138662 
L 300.651453 182.415152 
L 300.737863 185.26451 
L 300.653527 181.053432 
L 300.762106 182.206202 
L 300.769645 180.72235 
L 300.825694 184.983931 
L 300.870285 184.195386 
L 300.910628 185.358831 
L 300.93082 181.037098 
L 300.969501 182.095676 
L 301.011674 180.72235 
L 301.042807 185.26451 
L 301.078776 183.89211 
L 301.138664 184.711094 
L 301.160868 179.621598 
L 301.189903 183.902416 
L 301.226692 181.011013 
L 301.288333 185.618412 
L 301.304512 182.874505 
L 301.375362 185.036961 
L 301.320714 180.283136 
L 301.415259 182.409176 
L 301.493954 185.430203 
L 301.4322 180.518961 
L 301.525122 181.921374 
L 301.621529 180.587992 
L 301.541065 186.261502 
L 301.633159 183.988233 
L 301.671739 185.25943 
L 301.653743 181.152751 
L 301.741302 182.045782 
L 301.741945 181.240997 
L 301.841445 185.963914 
L 301.851504 183.266577 
L 301.875989 185.577695 
L 301.923451 180.291048 
L 301.962905 183.604548 
L 302.069381 180.720185 
L 302.012727 185.408215 
L 302.074886 182.165456 
L 302.161347 181.32267 
L 302.120566 185.470411 
L 302.169948 183.329563 
L 302.274863 185.67318 
L 302.229971 180.453903 
L 302.280825 182.833204 
L 302.38979 180.885609 
L 302.301869 186.603341 
L 302.392319 182.531835 
L 302.42783 185.713171 
L 302.491564 181.462102 
L 302.503898 183.145247 
L 302.582713 181.399058 
L 302.596578 185.587229 
L 302.615738 182.144721 
L 302.682914 181.085417 
L 302.695991 185.73211 
L 302.71746 184.271844 
L 302.718671 185.938016 
L 302.803002 180.695698 
L 302.828394 184.00239 
L 302.879748 185.736699 
L 302.84997 179.624214 
L 302.936778 183.165245 
L 303.018829 180.970524 
L 302.962281 185.853827 
L 303.048027 182.919641 
L 303.113964 185.398623 
L 303.071812 180.759169 
L 303.158873 182.409399 
L 303.262527 180.193404 
L 303.266085 185.241158 
L 303.269583 182.819099 
L 303.283083 185.602557 
L 303.290517 180.294712 
L 303.382063 183.651556 
L 303.453997 181.381623 
L 303.445232 186.123368 
L 303.493393 183.335381 
L 303.566164 185.466554 
L 303.559591 180.769622 
L 303.598672 181.295999 
L 303.680834 180.191045 
L 303.618407 185.417123 
L 303.708684 182.815652 
L 303.743329 180.030198 
L 303.73288 184.995782 
L 303.813366 184.397529 
L 303.81509 184.842303 
L 303.90602 180.656333 
L 303.923675 183.557657 
L 303.926578 180.965356 
L 303.984818 184.98183 
L 304.034899 183.36558 
L 304.041598 180.457315 
L 304.070344 184.926066 
L 304.146915 182.807774 
L 304.182966 185.689497 
L 304.201699 180.908727 
L 304.256324 181.845723 
L 304.348233 180.672293 
L 304.318097 186.076343 
L 304.365608 183.720107 
L 304.392309 185.169534 
L 304.439959 180.908007 
L 304.453142 181.687597 
L 304.561293 180.562633 
L 304.45796 185.47895 
L 304.563607 182.43515 
L 304.602569 185.838376 
L 304.632954 180.502737 
L 304.674526 182.367763 
L 304.68819 181.495877 
L 304.749163 185.659795 
L 304.785551 182.519867 
L 304.822099 185.146036 
L 304.800704 180.271214 
L 304.860551 181.447225 
L 304.86124 180.175477 
L 304.951002 185.921032 
L 304.971449 182.093089 
L 305.020209 185.47308 
L 305.062146 181.140712 
L 305.083081 183.00132 
L 305.187105 180.93391 
L 305.132074 186.04437 
L 305.189468 184.29107 
L 305.236569 185.089997 
L 305.195534 181.32672 
L 305.298632 182.148806 
L 305.301379 180.37405 
L 305.342161 185.306948 
L 305.408944 183.55404 
L 305.505304 185.569074 
L 305.477216 181.032626 
L 305.518818 182.439862 
L 305.558303 180.618402 
L 305.589577 185.247743 
L 305.629725 182.747445 
L 305.706613 185.834431 
L 305.689878 181.836043 
L 305.741397 183.03142 
L 305.77908 181.0251 
L 305.811593 186.254022 
L 305.852535 182.945837 
L 305.885732 180.430978 
L 305.858378 185.376816 
L 305.963136 183.815458 
L 306.023378 185.483649 
L 305.985531 180.611941 
L 306.073881 182.749342 
L 306.090066 185.03881 
L 306.136935 179.79274 
L 306.186903 183.124435 
L 306.232326 179.244129 
L 306.224254 184.927207 
L 306.297845 183.737794 
L 306.388645 184.828948 
L 306.373716 180.367835 
L 306.408619 182.852494 
L 306.517626 185.177523 
L 306.459301 180.845518 
L 306.520972 183.268579 
L 306.554961 180.773268 
L 306.591879 185.537921 
L 306.63222 183.081922 
L 306.719376 185.653521 
L 306.639436 181.08712 
L 306.743029 182.658866 
L 306.805746 179.610806 
L 306.767544 185.615591 
L 306.854037 182.725738 
L 306.892714 185.282928 
L 306.871373 181.000021 
L 306.965165 182.752795 
L 306.991596 180.68566 
L 307.032175 185.430678 
L 307.076862 181.750454 
L 307.117303 185.734533 
L 307.15878 180.194445 
L 307.188173 181.948717 
L 307.209517 180.938534 
L 307.199133 185.776397 
L 307.299068 182.618436 
L 307.399888 186.246115 
L 307.372984 180.719289 
L 307.410805 183.292387 
L 307.440211 185.425837 
L 307.415039 181.584199 
L 307.484481 181.937328 
L 307.487851 180.969775 
L 307.511107 185.565802 
L 307.592887 183.805959 
L 307.629075 185.400086 
L 307.70158 180.95014 
L 307.703895 183.477886 
L 307.733945 181.063762 
L 307.797233 185.447574 
L 307.814982 183.513054 
L 307.832873 186.445835 
L 307.865246 181.009467 
L 307.925954 183.262796 
L 307.926445 183.151843 
L 307.959118 181.302765 
L 307.973514 185.501424 
L 308.038021 181.648338 
L 308.10982 185.136262 
L 308.145842 180.428719 
L 308.149993 183.803519 
L 308.218188 180.493391 
L 308.213226 185.171507 
L 308.262166 182.70684 
L 308.266095 186.229611 
L 308.353963 179.598077 
L 308.37354 183.151603 
L 308.416013 180.824578 
L 308.381492 185.549433 
L 308.483126 183.626068 
L 308.55469 185.327332 
L 308.549935 179.803614 
L 308.593058 182.285874 
L 308.60118 180.309683 
L 308.649712 186.40657 
L 308.704374 181.824478 
L 308.720644 186.336198 
L 308.728893 181.105474 
L 308.816549 183.478875 
L 308.922951 180.463835 
L 308.821723 186.180701 
L 308.928109 183.081372 
L 308.991552 180.45608 
L 308.995306 186.319957 
L 309.032922 184.35858 
L 309.063533 185.752079 
L 309.132067 181.624863 
L 309.143712 183.599374 
L 309.205518 180.344939 
L 309.189827 185.801803 
L 309.254742 183.843703 
L 309.361366 180.822693 
L 309.300392 186.442985 
L 309.365991 183.694508 
L 309.414321 185.102177 
L 309.381882 180.39111 
L 309.473986 182.649818 
L 309.519514 180.553696 
L 309.538425 185.389504 
L 309.585366 181.490885 
L 309.597286 186.140359 
L 309.669352 181.143861 
L 309.69672 181.667324 
L 309.724977 180.755143 
L 309.769987 185.837077 
L 309.807782 181.86647 
L 309.872576 186.440942 
L 309.903798 180.710949 
L 309.919815 183.944321 
L 310.013417 180.945136 
L 310.024834 185.099285 
L 310.031325 182.512258 
L 310.069424 37.139916 
L 310.055995 185.128496 
L 310.069424 37.139916 
" clip-path="url(#p53a5fc79a6)" style="fill: none; stroke: #1f77b4; stroke-width: 1.5; stroke-linecap: square"/>
   </g>
   <g id="line2d_8">
    <path d="M -1 40.651333 
L 84.510982 40.751995 
L 99.058103 41.019884 
L 107.672767 41.387408 
L 114.321147 41.887046 
L 119.690056 42.517394 
L 124.011991 43.243758 
L 127.779323 44.097351 
L 131.107068 45.075797 
L 134.081395 46.176382 
L 136.830822 47.428019 
L 139.37172 48.826396 
L 141.768379 50.397979 
L 144.057749 52.167165 
L 146.261258 54.155902 
L 148.39135 56.383269 
L 150.455286 58.865059 
L 152.496451 61.670545 
L 154.5181 64.831181 
L 156.547302 68.423804 
L 158.580257 72.481893 
L 160.651302 77.122639 
L 162.768994 82.425883 
L 164.964433 88.53883 
L 167.275543 95.650641 
L 169.771449 104.073047 
L 172.625276 114.520057 
L 176.590379 129.974737 
L 181.605851 149.379216 
L 184.038781 157.890812 
L 186.015982 164.033121 
L 187.74003 168.691613 
L 189.296762 172.281189 
L 190.736362 175.061393 
L 192.092649 177.212932 
L 193.394107 178.87288 
L 194.669707 180.148215 
L 195.952342 181.121282 
L 197.284905 181.854719 
L 198.730396 182.394513 
L 200.394501 182.77256 
L 202.49568 183.010114 
L 205.700065 183.12362 
L 215.582415 183.143355 
L 310.069424 183.143357 
L 310.069424 183.143357 
" clip-path="url(#p53a5fc79a6)" style="fill: none; stroke: #ff7f0e; stroke-width: 1.5; stroke-linecap: square"/>
   </g>
   <g id="patch_3">
    <path d="M 53.958816 194.092096 
L 53.958816 29.339474 
" style="fill: none; stroke: #000000; stroke-width: 1.5; stroke-linejoin: miter; stroke-linecap: square"/>
   </g>
   <g id="patch_4">
    <path d="M 322.265167 194.092096 
L 322.265167 29.339474 
" style="fill: none; stroke: #000000; stroke-width: 1.5; stroke-linejoin: miter; stroke-linecap: square"/>
   </g>
   <g id="patch_5">
    <path d="M 53.958816 194.092096 
L 322.265167 194.092096 
" style="fill: none; stroke: #000000; stroke-width: 1.5; stroke-linejoin: miter; stroke-linecap: square"/>
   </g>
   <g id="patch_6">
    <path d="M 53.958816 29.339474 
L 322.265167 29.339474 
" style="fill: none; stroke: #000000; stroke-width: 1.5; stroke-linejoin: miter; stroke-linecap: square"/>
   </g>
   <g id="text_9">
    <!-- $\tau_m/\tau_D=0.001, \tau_\Gamma/\tau_D=$0.001 -->
    <g transform="translate(60.29897 23.339474)scale(0.216 -0.216)">
     <defs>
      <path id="CMMI12-6d" d="M 1318 1871 
C 1331 1910 1491 2229 1728 2433 
C 1894 2586 2112 2689 2362 2689 
C 2618 2689 2707 2497 2707 2242 
C 2707 2203 2707 2076 2630 1775 
L 2470 1118 
C 2419 926 2298 453 2285 383 
C 2259 287 2221 121 2221 96 
C 2221 6 2291 -64 2387 -64 
C 2579 -64 2611 83 2669 313 
L 3053 1839 
C 3066 1890 3398 2689 4102 2689 
C 4358 2689 4448 2497 4448 2242 
C 4448 1884 4198 1188 4058 805 
C 4000 651 3968 568 3968 453 
C 3968 166 4166 -64 4474 -64 
C 5069 -64 5293 875 5293 913 
C 5293 945 5267 971 5229 971 
C 5171 971 5165 952 5133 843 
C 4986 332 4749 64 4493 64 
C 4429 64 4326 64 4326 269 
C 4326 436 4403 640 4429 710 
C 4544 1018 4832 1773 4832 2145 
C 4832 2528 4608 2816 4122 2816 
C 3693 2816 3347 2574 3091 2197 
C 3072 2542 2861 2816 2381 2816 
C 1811 2816 1510 2415 1395 2255 
C 1376 2618 1114 2816 832 2816 
C 646 2816 499 2727 378 2484 
C 262 2254 173 1865 173 1839 
C 173 1814 198 1782 243 1782 
C 294 1782 301 1788 339 1935 
C 435 2312 557 2689 813 2689 
C 960 2689 1011 2586 1011 2395 
C 1011 2254 947 2005 902 1807 
L 723 1118 
C 698 996 627 709 595 594 
C 550 428 480 128 480 96 
C 480 6 550 -64 646 -64 
C 723 -64 813 -26 864 70 
C 877 102 934 326 966 453 
L 1107 1028 
L 1318 1871 
z
" transform="scale(0.015625)"/>
      <path id="CMR17-3d" d="M 4115 2017 
C 4211 2017 4307 2017 4307 2125 
C 4307 2240 4198 2240 4090 2240 
L 512 2240 
C 403 2240 294 2240 294 2125 
C 294 2017 390 2017 486 2017 
L 4115 2017 
z
M 4090 896 
C 4198 896 4307 896 4307 1011 
C 4307 1119 4211 1119 4115 1119 
L 486 1119 
C 390 1119 294 1119 294 1011 
C 294 896 403 896 512 896 
L 4090 896 
z
" transform="scale(0.015625)"/>
      <path id="CMMI12-3b" d="M 1248 -31 
C 1248 343 1126 619 864 619 
C 659 619 557 453 557 313 
C 557 172 653 0 870 0 
C 954 0 1024 26 1082 83 
C 1094 96 1101 96 1107 96 
C 1120 96 1120 5 1120 -27 
C 1120 -240 1082 -659 710 -1080 
C 640 -1157 640 -1170 640 -1183 
C 640 -1216 672 -1248 704 -1248 
C 755 -1248 1248 -771 1248 -31 
z
" transform="scale(0.015625)"/>
      <path id="CMR17-0" d="M 3315 4352 
L 326 4352 
L 326 4186 
C 768 4186 838 4186 838 3898 
L 838 448 
C 838 160 768 160 326 160 
L 326 0 
C 512 0 870 0 1069 0 
C 1331 0 1638 0 1901 0 
L 1901 160 
L 1760 160 
C 1274 160 1261 224 1261 455 
L 1261 3936 
C 1261 4154 1274 4186 1530 4186 
L 2234 4186 
C 3206 4186 3258 3738 3354 2938 
L 3469 2938 
L 3315 4352 
z
" transform="scale(0.015625)"/>
      <path id="CMR17-2e" d="M 1062 261 
C 1062 420 934 522 800 522 
C 672 522 538 420 538 261 
C 538 102 666 0 800 0 
C 928 0 1062 102 1062 261 
z
" transform="scale(0.015625)"/>
     </defs>
     <use xlink:href="#CMMI12-1c" transform="scale(0.996264)"/>
     <use xlink:href="#CMMI12-6d" transform="translate(42.363841 -14.943915)scale(0.697382)"/>
     <use xlink:href="#CMMI12-3d" transform="translate(102.590764 0)scale(0.996264)"/>
     <use xlink:href="#CMMI12-1c" transform="translate(151.365683 0)scale(0.996264)"/>
     <use xlink:href="#CMMI12-44" transform="translate(193.729523 -14.943915)scale(0.697382)"/>
     <use xlink:href="#CMR17-3d" transform="translate(280.494167 0)scale(0.996264)"/>
     <use xlink:href="#CMR17-30" transform="translate(379.882965 0)scale(0.996264)"/>
     <use xlink:href="#CMMI12-3a" transform="translate(425.573442 0)scale(0.996264)"/>
     <use xlink:href="#CMR17-30" transform="translate(452.670619 0)scale(0.996264)"/>
     <use xlink:href="#CMR17-30" transform="translate(498.361096 0)scale(0.996264)"/>
     <use xlink:href="#CMR17-31" transform="translate(544.051573 0)scale(0.996264)"/>
     <use xlink:href="#CMMI12-3b" transform="translate(589.74205 0)scale(0.996264)"/>
     <use xlink:href="#CMMI12-1c" transform="translate(633.443632 0)scale(0.996264)"/>
     <use xlink:href="#CMR17-0" transform="translate(675.807473 -14.943915)scale(0.697382)"/>
     <use xlink:href="#CMMI12-3d" transform="translate(716.472408 0)scale(0.996264)"/>
     <use xlink:href="#CMMI12-1c" transform="translate(765.247327 0)scale(0.996264)"/>
     <use xlink:href="#CMMI12-44" transform="translate(807.611168 -14.943915)scale(0.697382)"/>
     <use xlink:href="#CMR17-3d" transform="translate(894.375812 0)scale(0.996264)"/>
     <use xlink:href="#CMR17-30" transform="translate(966.0906 0)scale(0.996264)"/>
     <use xlink:href="#CMR17-2e" transform="translate(1011.781077 0)scale(0.996264)"/>
     <use xlink:href="#CMR17-30" transform="translate(1036.652136 0)scale(0.996264)"/>
     <use xlink:href="#CMR17-30" transform="translate(1082.342613 0)scale(0.996264)"/>
     <use xlink:href="#CMR17-31" transform="translate(1128.03309 0)scale(0.996264)"/>
    </g>
   </g>
   <g id="legend_1">
    <g id="patch_7">
     <path d="M 42.541657 88.513786 
L 311.065167 88.513786 
Q 314.265167 88.513786 314.265167 85.313786 
L 314.265167 40.539474 
Q 314.265167 37.339474 311.065167 37.339474 
L 42.541657 37.339474 
Q 39.341657 37.339474 39.341657 40.539474 
L 39.341657 85.313786 
Q 39.341657 88.513786 42.541657 88.513786 
z
" style="fill: #ffffff; opacity: 0.8; stroke: #cccccc; stroke-linejoin: miter"/>
    </g>
    <g id="line2d_9">
     <path d="M 45.741657 49.339474 
L 61.741657 49.339474 
L 77.741657 49.339474 
" style="fill: none; stroke: #1f77b4; stroke-width: 1.5; stroke-linecap: square"/>
    </g>
    <g id="text_10">
     <!-- Correlation -->
     <g transform="translate(90.541657 54.939474)scale(0.16 -0.16)">
      <defs>
       <path id="CMR17-43" d="M 3974 4289 
C 3974 4403 3968 4410 3930 4410 
C 3904 4410 3898 4403 3853 4327 
L 3571 3792 
C 3258 4187 2874 4416 2381 4416 
C 1286 4416 294 3456 294 2148 
C 294 826 1286 -128 2387 -128 
C 3366 -128 3974 730 3974 1461 
C 3974 1524 3974 1550 3917 1550 
C 3866 1550 3866 1531 3859 1474 
C 3808 585 3168 38 2477 38 
C 1824 38 781 495 781 2147 
C 781 3805 1843 4250 2464 4250 
C 3187 4250 3712 3628 3834 2745 
C 3846 2668 3846 2655 3904 2655 
C 3974 2655 3974 2668 3974 2783 
L 3974 4289 
z
" transform="scale(0.015625)"/>
       <path id="CMR17-6f" d="M 2758 1356 
C 2758 2176 2163 2816 1466 2816 
C 768 2816 173 2176 173 1356 
C 173 551 768 -64 1466 -64 
C 2163 -64 2758 551 2758 1356 
z
M 1466 51 
C 1165 51 909 230 762 480 
C 602 767 582 1126 582 1408 
C 582 1677 595 2010 762 2298 
C 890 2509 1139 2714 1466 2714 
C 1754 2714 1997 2554 2150 2330 
C 2349 2029 2349 1607 2349 1408 
C 2349 1158 2336 775 2163 467 
C 1984 173 1709 51 1466 51 
z
" transform="scale(0.015625)"/>
       <path id="CMR17-72" d="M 960 1497 
C 960 2112 1222 2688 1702 2688 
C 1747 2688 1792 2682 1837 2662 
C 1837 2662 1696 2617 1696 2452 
C 1696 2298 1818 2234 1914 2234 
C 1990 2234 2131 2279 2131 2458 
C 2131 2663 1926 2790 1709 2790 
C 1222 2790 1011 2317 947 2093 
L 941 2093 
L 941 2790 
L 198 2720 
L 198 2554 
C 576 2554 634 2515 634 2208 
L 634 428 
C 634 184 608 153 198 153 
L 198 -13 
C 352 0 646 0 813 0 
C 998 0 1325 0 1498 -13 
L 1498 153 
C 1037 153 960 153 960 440 
L 960 1497 
z
" transform="scale(0.015625)"/>
       <path id="CMR17-65" d="M 2438 1472 
C 2464 1498 2464 1511 2464 1576 
C 2464 2238 2118 2816 1389 2816 
C 710 2816 173 2169 173 1383 
C 173 551 781 -64 1459 -64 
C 2176 -64 2458 607 2458 740 
C 2458 784 2419 784 2406 784 
C 2362 784 2355 771 2330 696 
C 2189 265 1837 51 1504 51 
C 1229 51 954 203 781 480 
C 582 803 582 1176 582 1472 
L 2438 1472 
z
M 589 1568 
C 634 2505 1126 2714 1382 2714 
C 1818 2714 2112 2297 2118 1568 
L 589 1568 
z
" transform="scale(0.015625)"/>
       <path id="CMR17-6c" d="M 979 4396 
L 218 4326 
L 218 4160 
C 595 4160 653 4122 653 3817 
L 653 426 
C 653 184 627 153 218 153 
L 218 -13 
C 371 0 653 0 813 0 
C 979 0 1261 0 1414 -13 
L 1414 153 
C 1005 153 979 178 979 426 
L 979 4396 
z
" transform="scale(0.015625)"/>
       <path id="CMR17-61" d="M 2304 1653 
C 2304 2072 2304 2294 2035 2543 
C 1798 2752 1523 2816 1306 2816 
C 800 2816 435 2407 435 1971 
C 435 1728 627 1728 666 1728 
C 749 1728 896 1778 896 1954 
C 896 2112 774 2181 666 2181 
C 640 2181 608 2174 589 2168 
C 723 2592 1069 2714 1293 2714 
C 1613 2714 1965 2429 1965 1885 
L 1965 1600 
C 1587 1600 1133 1549 774 1357 
C 371 1133 256 813 256 570 
C 256 77 832 -64 1171 -64 
C 1523 -64 1850 139 1990 511 
C 2003 233 2182 -18 2464 -18 
C 2598 -18 2938 70 2938 567 
L 2938 920 
L 2822 920 
L 2822 562 
C 2822 178 2650 128 2566 128 
C 2304 128 2304 458 2304 738 
L 2304 1653 
z
M 1965 870 
C 1965 317 1568 38 1216 38 
C 896 38 646 275 646 570 
C 646 761 730 1100 1101 1305 
C 1408 1478 1760 1504 1965 1504 
L 1965 870 
z
" transform="scale(0.015625)"/>
       <path id="CMR17-74" d="M 966 2560 
L 1862 2560 
L 1862 2725 
L 966 2725 
L 966 3904 
L 851 3904 
C 838 3245 614 2668 70 2668 
L 70 2560 
L 627 2560 
L 627 771 
C 627 650 627 -64 1370 -64 
C 1747 -64 1965 306 1965 777 
L 1965 1140 
L 1850 1140 
L 1850 783 
C 1850 344 1677 51 1408 51 
C 1222 51 966 178 966 758 
L 966 2560 
z
" transform="scale(0.015625)"/>
       <path id="CMR17-69" d="M 992 3909 
C 992 4049 877 4170 730 4170 
C 589 4170 467 4056 467 3909 
C 467 3769 582 3648 730 3648 
C 870 3648 992 3763 992 3909 
z
M 243 2706 
L 243 2541 
C 602 2541 653 2502 653 2197 
L 653 427 
C 653 184 627 153 218 153 
L 218 -13 
C 371 0 646 0 806 0 
C 960 0 1222 0 1370 -13 
L 1370 153 
C 992 153 979 191 979 420 
L 979 2776 
L 243 2706 
z
" transform="scale(0.015625)"/>
       <path id="CMR17-6e" d="M 2656 1933 
C 2656 2259 2592 2790 1837 2790 
C 1331 2790 1069 2400 973 2144 
L 966 2144 
L 966 2790 
L 211 2720 
L 211 2554 
C 589 2554 646 2515 646 2208 
L 646 428 
C 646 184 621 153 211 153 
L 211 -13 
C 365 0 646 0 813 0 
C 979 0 1267 0 1421 -13 
L 1421 153 
C 1011 153 986 178 986 428 
L 986 1658 
C 986 2247 1344 2688 1792 2688 
C 2266 2688 2317 2266 2317 1958 
L 2317 428 
C 2317 184 2291 153 1882 153 
L 1882 -13 
C 2035 0 2317 0 2483 0 
C 2650 0 2938 0 3091 -13 
L 3091 153 
C 2682 153 2656 178 2656 428 
L 2656 1933 
z
" transform="scale(0.015625)"/>
      </defs>
      <use xlink:href="#CMR17-43" transform="scale(0.996264)"/>
      <use xlink:href="#CMR17-6f" transform="translate(66.509881 0)scale(0.996264)"/>
      <use xlink:href="#CMR17-72" transform="translate(112.200358 0)scale(0.996264)"/>
      <use xlink:href="#CMR17-72" transform="translate(147.481125 0)scale(0.996264)"/>
      <use xlink:href="#CMR17-65" transform="translate(182.761893 0)scale(0.996264)"/>
      <use xlink:href="#CMR17-6c" transform="translate(223.247554 0)scale(0.996264)"/>
      <use xlink:href="#CMR17-61" transform="translate(248.118612 0)scale(0.996264)"/>
      <use xlink:href="#CMR17-74" transform="translate(293.809089 0)scale(0.996264)"/>
      <use xlink:href="#CMR17-69" transform="translate(329.089857 0)scale(0.996264)"/>
      <use xlink:href="#CMR17-6f" transform="translate(353.960916 0)scale(0.996264)"/>
      <use xlink:href="#CMR17-6e" transform="translate(399.651393 0)scale(0.996264)"/>
     </g>
    </g>
    <g id="line2d_10">
     <path d="M 45.741657 73.41431 
L 61.741657 73.41431 
L 77.741657 73.41431 
" style="fill: none; stroke: #ff7f0e; stroke-width: 1.5; stroke-linecap: square"/>
    </g>
    <g id="text_11">
     <!-- Fitting result: $- -0.974e^{-0.235x}$ -->
     <g transform="translate(90.541657 79.01431)scale(0.16 -0.16)">
      <defs>
       <path id="CMR17-46" d="M 3482 4325 
L 326 4325 
L 326 4160 
C 768 4160 838 4160 838 3874 
L 838 446 
C 838 160 768 160 326 160 
L 326 0 
C 512 0 870 0 1069 0 
C 1331 0 1638 0 1901 0 
L 1901 160 
L 1760 160 
C 1274 160 1261 223 1261 452 
L 1261 2075 
L 1837 2075 
C 2432 2075 2490 1865 2490 1332 
L 2605 1332 
L 2605 2987 
L 2490 2987 
C 2490 2450 2432 2240 1837 2240 
L 1261 2240 
L 1261 3911 
C 1261 4128 1274 4160 1530 4160 
L 2355 4160 
C 3322 4160 3430 3765 3520 2916 
L 3635 2916 
L 3482 4325 
z
" transform="scale(0.015625)"/>
       <path id="CMR17-67" d="M 710 1164 
C 832 1068 1043 960 1299 960 
C 1805 960 2240 1357 2240 1888 
C 2240 2054 2189 2310 1997 2509 
C 2176 2692 2438 2752 2586 2752 
C 2611 2752 2650 2752 2682 2734 
C 2656 2728 2598 2703 2598 2605 
C 2598 2527 2656 2471 2739 2471 
C 2835 2471 2886 2533 2886 2614 
C 2886 2731 2790 2854 2586 2854 
C 2330 2854 2106 2738 1926 2580 
C 1734 2753 1504 2816 1299 2816 
C 794 2816 358 2419 358 1888 
C 358 1522 570 1292 634 1228 
C 442 1004 442 743 442 711 
C 442 545 506 302 723 168 
C 390 85 128 -169 128 -486 
C 128 -943 736 -1280 1466 -1280 
C 2170 -1280 2803 -956 2803 -479 
C 2803 384 1856 384 1363 384 
C 1216 384 954 384 922 391 
C 723 423 589 602 589 826 
C 589 883 589 1024 710 1164 
z
M 1299 1068 
C 736 1068 736 1760 736 1889 
C 736 2016 736 2708 1299 2708 
C 1862 2708 1862 2016 1862 1889 
C 1862 1760 1862 1068 1299 1068 
z
M 1466 -1171 
C 826 -1171 384 -835 384 -486 
C 384 -289 493 -105 634 -4 
C 794 104 858 104 1293 104 
C 1818 104 2547 104 2547 -486 
C 2547 -835 2106 -1171 1466 -1171 
z
" transform="scale(0.015625)"/>
       <path id="CMR17-73" d="M 1978 2697 
C 1978 2813 1971 2819 1933 2819 
C 1907 2819 1901 2813 1824 2717 
C 1805 2691 1747 2626 1728 2601 
C 1523 2819 1235 2819 1126 2819 
C 416 2819 160 2447 160 2076 
C 160 1498 813 1365 998 1325 
C 1402 1243 1542 1217 1677 1101 
C 1760 1025 1901 884 1901 654 
C 1901 384 1747 38 1158 38 
C 602 38 403 460 288 1021 
C 269 1110 269 1117 218 1117 
C 166 1117 160 1110 160 983 
L 160 63 
C 160 -51 166 -58 205 -58 
C 237 -58 243 -51 275 0 
C 314 57 410 211 448 276 
C 576 103 800 -64 1158 -64 
C 1792 -64 2131 283 2131 784 
C 2131 1112 1958 1285 1875 1362 
C 1683 1561 1459 1606 1190 1657 
C 838 1735 390 1825 390 2217 
C 390 2383 480 2737 1126 2737 
C 1811 2737 1850 2094 1862 1888 
C 1869 1856 1901 1849 1920 1849 
C 1978 1849 1978 1869 1978 1978 
L 1978 2697 
z
" transform="scale(0.015625)"/>
       <path id="CMR17-75" d="M 1882 2693 
L 1882 2528 
C 2259 2528 2317 2489 2317 2186 
L 2317 1032 
C 2317 500 2029 38 1555 38 
C 1030 38 986 348 986 678 
L 986 2763 
L 211 2693 
L 211 2528 
C 467 2528 640 2528 646 2274 
L 646 1058 
C 646 633 646 361 813 183 
C 896 101 1056 -64 1517 -64 
C 2061 -64 2272 377 2323 506 
L 2330 506 
L 2330 -63 
L 3091 -63 
L 3091 128 
C 2714 128 2656 166 2656 473 
L 2656 2763 
L 1882 2693 
z
" transform="scale(0.015625)"/>
       <path id="CMR17-3a" d="M 1062 2491 
C 1062 2650 934 2752 800 2752 
C 672 2752 538 2650 538 2491 
C 538 2332 666 2230 800 2230 
C 928 2230 1062 2332 1062 2491 
z
M 1062 261 
C 1062 420 934 522 800 522 
C 672 522 538 420 538 261 
C 538 102 666 0 800 0 
C 928 0 1062 102 1062 261 
z
" transform="scale(0.015625)"/>
       <path id="CMR17-39" d="M 2253 1864 
C 2253 464 1670 31 1190 31 
C 1043 31 685 31 538 294 
C 704 268 826 357 826 518 
C 826 692 685 749 595 749 
C 538 749 365 723 365 506 
C 365 71 742 -128 1203 -128 
C 1939 -128 2688 674 2688 2073 
C 2688 3817 1971 4179 1485 4179 
C 851 4179 243 3628 243 2778 
C 243 1991 762 1408 1414 1408 
C 1952 1408 2189 1903 2253 2112 
L 2253 1864 
z
M 1427 1510 
C 1254 1510 1011 1542 813 1922 
C 678 2169 678 2461 678 2771 
C 678 3146 678 3405 858 3684 
C 947 3817 1114 4032 1485 4032 
C 2240 4032 2240 2885 2240 2632 
C 2240 2182 2035 1510 1427 1510 
z
" transform="scale(0.015625)"/>
       <path id="CMR17-37" d="M 2886 3941 
L 2886 4081 
L 1382 4081 
C 634 4081 621 4165 595 4288 
L 480 4288 
L 294 3094 
L 410 3094 
C 429 3215 474 3540 550 3661 
C 589 3712 1062 3712 1171 3712 
L 2579 3712 
L 1869 2661 
C 1395 1954 1069 999 1069 165 
C 1069 89 1069 -128 1299 -128 
C 1530 -128 1530 89 1530 171 
L 1530 465 
C 1530 1508 1709 2196 2003 2636 
L 2886 3941 
z
" transform="scale(0.015625)"/>
       <path id="CMR17-34" d="M 2150 4122 
C 2150 4256 2144 4256 2029 4256 
L 128 1254 
L 128 1088 
L 1779 1088 
L 1779 457 
C 1779 224 1766 160 1318 160 
L 1197 160 
L 1197 0 
C 1402 0 1747 0 1965 0 
C 2182 0 2528 0 2733 0 
L 2733 160 
L 2611 160 
C 2163 160 2150 224 2150 457 
L 2150 1088 
L 2803 1088 
L 2803 1254 
L 2150 1254 
L 2150 4122 
z
M 1798 3703 
L 1798 1254 
L 256 1254 
L 1798 3703 
z
" transform="scale(0.015625)"/>
       <path id="CMMI12-65" d="M 1146 1479 
C 1318 1479 1754 1479 2061 1595 
C 2547 1783 2592 2158 2592 2274 
C 2592 2558 2349 2816 1926 2816 
C 1254 2816 288 2210 288 1073 
C 288 402 672 -64 1254 -64 
C 2125 -64 2675 609 2675 692 
C 2675 730 2637 762 2611 762 
C 2592 762 2586 756 2528 699 
C 2118 159 1510 64 1267 64 
C 902 64 710 350 710 822 
C 710 911 710 1071 806 1479 
L 1146 1479 
z
M 838 1600 
C 1114 2592 1722 2689 1926 2689 
C 2208 2689 2400 2522 2400 2277 
C 2400 1600 1376 1600 1107 1600 
L 838 1600 
z
" transform="scale(0.015625)"/>
       <path id="CMR17-33" d="M 1414 2157 
C 1984 2157 2234 1662 2234 1090 
C 2234 320 1824 25 1453 25 
C 1114 25 563 194 390 693 
C 422 680 454 680 486 680 
C 640 680 755 782 755 948 
C 755 1133 614 1216 486 1216 
C 378 1216 211 1165 211 926 
C 211 335 787 -128 1466 -128 
C 2176 -128 2720 430 2720 1085 
C 2720 1707 2208 2157 1600 2227 
C 2086 2328 2554 2756 2554 3329 
C 2554 3820 2048 4179 1472 4179 
C 890 4179 378 3829 378 3329 
C 378 3110 544 3072 627 3072 
C 762 3072 877 3155 877 3321 
C 877 3486 762 3569 627 3569 
C 602 3569 570 3569 544 3557 
C 730 3959 1235 4032 1459 4032 
C 1683 4032 2106 3925 2106 3320 
C 2106 3143 2080 2828 1862 2550 
C 1670 2304 1453 2304 1242 2284 
C 1210 2284 1062 2269 1037 2269 
C 992 2263 966 2257 966 2208 
C 966 2163 973 2157 1101 2157 
L 1414 2157 
z
" transform="scale(0.015625)"/>
      </defs>
      <use xlink:href="#CMR17-46" transform="scale(0.996264)"/>
      <use xlink:href="#CMR17-69" transform="translate(59.983847 0)scale(0.996264)"/>
      <use xlink:href="#CMR17-74" transform="translate(84.854905 0)scale(0.996264)"/>
      <use xlink:href="#CMR17-74" transform="translate(120.135673 0)scale(0.996264)"/>
      <use xlink:href="#CMR17-69" transform="translate(155.416441 0)scale(0.996264)"/>
      <use xlink:href="#CMR17-6e" transform="translate(180.287499 0)scale(0.996264)"/>
      <use xlink:href="#CMR17-67" transform="translate(231.182869 0)scale(0.996264)"/>
      <use xlink:href="#CMR17-72" transform="translate(306.949312 0)scale(0.996264)"/>
      <use xlink:href="#CMR17-65" transform="translate(342.23008 0)scale(0.996264)"/>
      <use xlink:href="#CMR17-73" transform="translate(382.715741 0)scale(0.996264)"/>
      <use xlink:href="#CMR17-75" transform="translate(418.517078 0)scale(0.996264)"/>
      <use xlink:href="#CMR17-6c" transform="translate(469.412448 0)scale(0.996264)"/>
      <use xlink:href="#CMR17-74" transform="translate(494.283507 0)scale(0.996264)"/>
      <use xlink:href="#CMR17-3a" transform="translate(529.564274 0)scale(0.996264)"/>
      <use xlink:href="#CMSY10-0" transform="translate(594.920993 0)scale(0.996264)"/>
      <use xlink:href="#CMSY10-0" transform="translate(694.547668 0)scale(0.996264)"/>
      <use xlink:href="#CMR17-30" transform="translate(794.174343 0)scale(0.996264)"/>
      <use xlink:href="#CMMI12-3a" transform="translate(839.86482 0)scale(0.996264)"/>
      <use xlink:href="#CMR17-39" transform="translate(866.961997 0)scale(0.996264)"/>
      <use xlink:href="#CMR17-37" transform="translate(912.652474 0)scale(0.996264)"/>
      <use xlink:href="#CMR17-34" transform="translate(958.342951 0)scale(0.996264)"/>
      <use xlink:href="#CMMI12-65" transform="translate(1004.033428 0)scale(0.996264)"/>
      <use xlink:href="#CMSY10-0" transform="translate(1049.245429 36.153639)scale(0.697382)"/>
      <use xlink:href="#CMR17-30" transform="translate(1103.486422 36.153639)scale(0.697382)"/>
      <use xlink:href="#CMMI12-3a" transform="translate(1135.469604 36.153639)scale(0.697382)"/>
      <use xlink:href="#CMR17-32" transform="translate(1154.437537 36.153639)scale(0.697382)"/>
      <use xlink:href="#CMR17-33" transform="translate(1186.420719 36.153639)scale(0.697382)"/>
      <use xlink:href="#CMR17-35" transform="translate(1218.403901 36.153639)scale(0.697382)"/>
      <use xlink:href="#CMMI12-78" transform="translate(1250.387083 36.153639)scale(0.697382)"/>
     </g>
    </g>
   </g>
  </g>
 </g>
 <defs>
  <clipPath id="p53a5fc79a6">
   <rect x="53.958816" y="29.339474" width="268.306351" height="164.752622"/>
  </clipPath>
 </defs>
</svg>
